<?xml version="1.0" standalone="no"?>
<!DOCTYPE svg PUBLIC "-//W3C//DTD SVG 1.1//EN" "http://www.w3.org/Graphics/SVG/1.1/DTD/svg11.dtd" >
<svg>
<metadata>
Created by FontForge 20120731 at Fri Aug 19 13:14:19 2016
 By ,,,
Copyright (c) Boutros International, 2004. All rights reserved.
</metadata>
<defs>
<font id="GESSUnique-BoldItalic" horiz-adv-x="0" >
  <font-face 
    font-family="GE SS Unique"
    font-weight="700"
    font-style="italic"
    font-stretch="normal"
    units-per-em="1000"
    panose-1="2 10 5 3 2 1 2 2 2 4"
    ascent="800"
    descent="-200"
    bbox="-407 -402 1449 1119.31"
    underline-thickness="50"
    underline-position="-50"
    unicode-range="U+0020-FEFF"
  />
<missing-glyph horiz-adv-x="500" 
d="M63 0h375v750h-375v-750zM125 63v625h250v-625h-250z" />
    <glyph glyph-name="hamzaarabic" unicode="&#x621;" horiz-adv-x="603" arabic-form="isolated" 
d="M107 0h345q42 0 81.5 20.5t49.5 63.5l-106 80q-4 -31 -46 -31h-117l-12 50q-17 72 30 72q45 0 58 -49h131q-28 92 -81.5 135.5t-137.5 43.5q-89 0 -119 -58.5t-10 -144.5l12 -49h-68z" />
    <glyph glyph-name="alefmaddaabovearabic" unicode="&#x622;" horiz-adv-x="278" arabic-form="isolated" 
d="M128 648l150 -648h-134l-149 648h133zM-15 700h-38q-7 32 3.5 56.5t33.5 25.5q9 1 23.5 -5t34 -17t29.5 -15q27 -9 32 -1t1 22h38q7 -33 -4 -57.5t-33 -25.5q-10 0 -24.5 6t-34.5 16.5t-30 14.5q-25 9 -30.5 1.5t-0.5 -21.5z" />
    <glyph glyph-name="alefhamzaabovearabic" unicode="&#x623;" horiz-adv-x="278" arabic-form="isolated" 
d="M128 648l150 -648h-134l-149 648h133zM-49 704h131q42 0 49 32l-40 30q0 -6 -4.5 -9t-8.5 -3h-5h-44l-5 23q-5 27 12 27t21 -18h50q-22 67 -82 67q-33 0 -44.5 -22t-4.5 -54l5 -23h-27z" />
    <glyph glyph-name="wawhamzaabovearabic" unicode="&#x624;" horiz-adv-x="579" arabic-form="isolated" 
d="M412 133l-45 192h-85q-42 0 -60.5 -30t-9.5 -67q9 -39 40.5 -67t74.5 -28h85zM302 -160l-62 119q50 -14 90 -14q95 0 107 55h-75q-100 0 -183.5 66t-105.5 162q-22 95 28.5 156t157.5 61h217l94 -410q11 -61 0 -101.5t-44 -64t-71 -33t-80 -7.5q-35 1 -73 11zM120 532
h197q24 0 46 11.5t28 35.5l-61 45q-2 -17 -27 -17h-65l-7 33q-11 41 16 41t33 -27h74q-31 100 -124 100q-50 0 -67 -32.5t-5 -81.5l7 -33h-40z" />
    <glyph glyph-name="alefhamzabelowarabic" unicode="&#x625;" horiz-adv-x="278" arabic-form="isolated" 
d="M128 648l150 -648h-134l-149 648h133zM151 -196h132q41 0 49 31l-40 30q-2 -11 -19 -11h-44l-5 22q-5 27 12 27t22 -18h50q-21 67 -83 67q-33 0 -44.5 -21.5t-4.5 -54.5l5 -22h-27z" />
    <glyph glyph-name="yehhamzaabovearabic" unicode="&#x626;" horiz-adv-x="892" arabic-form="isolated" 
d="M92 234l121 -72q-11 -19 -12.5 -45t8.5 -53t29 -50t52 -38t75 -15h293q46 0 72 21t16 64t-47 64.5t-81 21.5h-174l-39 169q-22 85 20.5 129t120.5 44q77 0 139 -40.5t88 -127.5h-135q-16 40 -60 40q-19 0 -31.5 -11.5t-7.5 -31.5l11 -48h61q51 0 104.5 -20.5t101.5 -70
t64 -118.5q24 -102 -35 -160t-149 -58h-296q-73 0 -135.5 27t-102 70t-65.5 97t-25 108.5t19 103.5zM27 283h197q25 0 47 11.5t27 35.5l-59 45q-4 -17 -28 -17h-65l-8 33q-9 40 17 40q25 0 33 -26h73q-30 100 -123 100q-50 0 -67 -32.5t-6 -81.5l8 -33h-40z" />
    <glyph glyph-name="alefarabic" unicode="&#x627;" horiz-adv-x="278" arabic-form="isolated" 
d="M128 648l150 -648h-134l-149 648h133z" />
    <glyph glyph-name="beharabic" unicode="&#x628;" horiz-adv-x="858" arabic-form="isolated" 
d="M676 0h-406q-89 0 -168.5 61.5t-101.5 140.5q-27 92 13 170l116 -86q-20 -39 0 -84q12 -28 42 -48.5t63 -20.5h400q57 0 43 60l-58 252h136l56 -244q5 -22 7.5 -43t-1.5 -51.5t-17 -52.5t-44.5 -38t-79.5 -16zM406 -57h136l26 -115h-136z" />
    <glyph glyph-name="tehmarbutaarabic" unicode="&#x629;" horiz-adv-x="515" arabic-form="isolated" 
d="M460 238l-55 238h-235q-109 0 -156.5 -65.5t-22.5 -172.5q24 -108 102 -173.5t187 -65.5t156.5 65.5t23.5 173.5zM195 368h96l30 -130q29 -130 -66 -130q-55 0 -85 39.5t-41 90.5q-30 130 66 130zM216 679h136l27 -116h-136zM18 679h136l27 -116h-136z" />
    <glyph glyph-name="teharabic" unicode="&#x62a;" horiz-adv-x="858" arabic-form="isolated" 
d="M676 0h-406q-89 0 -168.5 61.5t-101.5 140.5q-27 92 13 170l116 -86q-20 -39 0 -84q12 -28 42 -48.5t63 -20.5h400q57 0 43 60l-58 252h136l56 -244q5 -22 7.5 -43t-1.5 -51.5t-17 -52.5t-44.5 -38t-79.5 -16zM383 433h137l26 -115h-137zM185 433h137l26 -115h-137z" />
    <glyph glyph-name="theharabic" unicode="&#x62b;" horiz-adv-x="858" arabic-form="isolated" 
d="M676 0h-406q-95 0 -175 66.5t-99 151.5q-19 86 17 154l116 -86q-2 -3 -3.5 -9t-4.5 -23.5t2 -33.5q7 -33 39 -60t72 -27h400q57 0 43 60l-58 252h136l56 -244q5 -22 7.5 -43t-1.5 -51.5t-17 -52.5t-44.5 -38t-79.5 -16zM353 499h120l24 -103h-120zM178 499h120l24 -103
h-120zM238 641h111l22 -97h-111z" />
    <glyph glyph-name="jeemarabic" unicode="&#x62c;" horiz-adv-x="588" arabic-form="isolated" 
d="M182 372q-25 -7 -54 -25.5t-58 -47t-45 -72.5t-9 -93q17 -127 117 -216.5t232 -89.5q93 0 150.5 52.5t68.5 132.5h-144q-27 -55 -103 -55q-74 0 -127 51.5t-60 115.5q-6 44 6.5 81t37 61t56 43t64.5 29.5t60 17t44 8.5l18 2l3 89q-97 -20 -179 -5q-10 2 -33.5 7t-36 7.5
t-34.5 6t-35 3.5t-33 -1t-32.5 -6t-28 -13.5t-26 -21t-20.5 -31t-17 -41.5h116q12 24 47.5 24.5t54.5 -13.5zM261 215h137l26 -115h-137z" />
    <glyph glyph-name="haharabic" unicode="&#x62d;" horiz-adv-x="588" arabic-form="isolated" 
d="M182 372q-25 -7 -54 -25.5t-58 -47t-45 -72.5t-9 -93q17 -127 117 -216.5t232 -89.5q93 0 150.5 52.5t68.5 132.5h-144q-27 -55 -103 -55q-74 0 -127 51.5t-60 115.5q-6 44 6.5 81t37 61t56 43t64.5 29.5t60 17t44 8.5l18 2l3 89q-97 -20 -179 -5q-10 2 -33.5 7t-36 7.5
t-34.5 6t-35 3.5t-33 -1t-32.5 -6t-28 -13.5t-26 -21t-20.5 -31t-17 -41.5h116q12 24 47.5 24.5t54.5 -13.5z" />
    <glyph glyph-name="khaharabic" unicode="&#x62e;" horiz-adv-x="588" arabic-form="isolated" 
d="M105 694h136l27 -115h-136zM182 372q-25 -7 -54 -25.5t-58 -47t-45 -72.5t-9 -93q17 -127 117 -216.5t232 -89.5q93 0 150.5 52.5t68.5 132.5h-144q-27 -55 -103 -55q-74 0 -127 51.5t-60 115.5q-6 44 6.5 81t37 61t56 43t64.5 29.5t60 17t44 8.5l18 2l3 89
q-97 -20 -179 -5q-10 2 -33.5 7t-36 7.5t-34.5 6t-35 3.5t-33 -1t-32.5 -6t-28 -13.5t-26 -21t-20.5 -31t-17 -41.5h116q12 24 47.5 24.5t54.5 -13.5z" />
    <glyph glyph-name="dalarabic" unicode="&#x62f;" horiz-adv-x="530" arabic-form="isolated" 
d="M361 133l-42 183q-1 5 -4.5 13t-21 21t-43.5 13q-21 0 -36 -13t-11 -43h-127q-9 45 4 77t40.5 46.5t53 20.5t52.5 6q197 0 238 -174l66 -283h-404l-31 133h266z" />
    <glyph glyph-name="thalarabic" unicode="&#x630;" horiz-adv-x="530" arabic-form="isolated" 
d="M361 133l-42 183q-1 5 -4.5 13t-21 21t-43.5 13q-21 0 -36 -13t-11 -43h-127q-9 45 4 77t40.5 46.5t53 20.5t52.5 6q197 0 238 -174l66 -283h-404l-31 133h266zM116 648h137l27 -116h-137z" />
    <glyph glyph-name="reharabic" unicode="&#x631;" horiz-adv-x="420" arabic-form="isolated" 
d="M181 446l86 -376q14 -64 -18 -94.5t-77 -30.5q-26 0 -56 5.5t-47 11.5l-17 6l48 -111q54 -23 117 -28q99 -8 156.5 55.5t30.5 180.5l-87 381h-136z" />
    <glyph glyph-name="zainarabic" unicode="&#x632;" horiz-adv-x="420" arabic-form="isolated" 
d="M181 446l86 -376q14 -64 -18 -94.5t-77 -30.5q-26 0 -56 5.5t-47 11.5l-17 6l48 -111q54 -23 117 -28q99 -8 156.5 55.5t30.5 180.5l-87 381h-136zM133 648h136l27 -116h-136z" />
    <glyph glyph-name="seenarabic" unicode="&#x633;" horiz-adv-x="1286" arabic-form="isolated" 
d="M521 168l-57 246h134l54 -235q12 -48 42 -76t63 -28q79 0 59 98l-56 241h134l54 -235q12 -48 42 -76t63 -28q79 0 59 98l-63 271h134l63 -271q19 -84 -5.5 -138.5t-107.5 -54.5q-50 0 -89.5 20t-82.5 65q-5 -35 -44 -60t-80 -25q-52 0 -92.5 16t-78.5 60
q-7 -106 -77.5 -167t-183.5 -61q-133 0 -249.5 97.5t-149.5 239.5q-19 90 -13 153h139q-16 -61 5 -153q19 -80 91 -141t146 -61q80 0 123.5 57.5t23.5 147.5z" />
    <glyph glyph-name="sheenarabic" unicode="&#x634;" horiz-adv-x="1286" arabic-form="isolated" 
d="M603 648h137l27 -116h-137zM802 648h136l27 -116h-136zM671 806h126l25 -107h-126zM521 168l-57 246h134l54 -235q12 -48 42 -76t63 -28q79 0 59 98l-56 241h134l54 -235q12 -48 42 -76t63 -28q79 0 59 98l-63 271h134l63 -271q19 -84 -5.5 -138.5t-107.5 -54.5
q-50 0 -89.5 20t-82.5 65q-5 -35 -44 -60t-80 -25q-52 0 -92.5 16t-78.5 60q-7 -106 -77.5 -167t-183.5 -61q-133 0 -249.5 97.5t-149.5 239.5q-19 90 -13 153h139q-16 -61 5 -153q19 -80 91 -141t146 -61q80 0 123.5 57.5t23.5 147.5z" />
    <glyph glyph-name="sadarabic" unicode="&#x635;" horiz-adv-x="1216" arabic-form="isolated" 
d="M521 168l-59 254h132l12 -86q37 62 104.5 91.5t126.5 29.5q65 0 131.5 -25t122.5 -80t73 -129q23 -99 -30.5 -161t-150.5 -62h-325q-21 -81 -88.5 -126.5t-164.5 -45.5q-133 0 -249.5 97.5t-149.5 239.5q-19 90 -13 153h139q-16 -61 5 -153q19 -80 91 -141t146 -61
q80 0 123.5 57.5t23.5 147.5zM655 133h287q42 0 67 26t16 62q-13 55 -59.5 81t-91.5 29q-105 7 -162.5 -58.5t-56.5 -139.5z" />
    <glyph glyph-name="dadarabic" unicode="&#x636;" horiz-adv-x="1216" arabic-form="isolated" 
d="M521 168l-59 254h132l12 -86q37 62 104.5 91.5t126.5 29.5q65 0 131.5 -25t122.5 -80t73 -129q23 -99 -30.5 -161t-150.5 -62h-325q-21 -81 -88.5 -126.5t-164.5 -45.5q-133 0 -249.5 97.5t-149.5 239.5q-19 90 -13 153h139q-16 -61 5 -153q19 -80 91 -141t146 -61
q80 0 123.5 57.5t23.5 147.5zM702 658h136l26 -115h-136zM655 133h287q42 0 67 26t16 62q-8 35 -31.5 59.5t-53 34.5t-49.5 13.5t-35 3.5q-66 0 -114 -34t-68 -78t-19 -87z" />
    <glyph glyph-name="taharabic" unicode="&#x637;" horiz-adv-x="839" arabic-form="isolated" 
d="M168 648l60 -312q37 62 104.5 91.5t126.5 29.5q65 0 132 -25t123 -80t73 -129q23 -99 -31 -161t-151 -62h-558l24 133h80l-119 515h136zM278 133h287q41 0 66.5 26t16.5 62q-7 29 -25.5 51.5t-42 34t-44.5 17.5t-40 7q-105 7 -162 -58.5t-56 -139.5z" />
    <glyph glyph-name="zaharabic" unicode="&#x638;" horiz-adv-x="839" arabic-form="isolated" 
d="M168 648l60 -312q37 62 104.5 91.5t126.5 29.5q65 0 132 -25t123 -80t73 -129q23 -99 -31 -161t-151 -62h-558l24 133h80l-119 515h136zM278 133h287q41 0 66.5 26t16.5 62q-7 29 -25.5 51.5t-42 34t-44.5 17.5t-40 7q-105 7 -162 -58.5t-56 -139.5zM324 658h137l26 -115
h-137z" />
    <glyph glyph-name="ainarabic" unicode="&#x639;" horiz-adv-x="563" arabic-form="isolated" 
d="M210 356l4 -15q61 11 215 -1l30 -129q-84 6 -151 6q-24 0 -45.5 -3t-45 -11.5t-37 -23.5t-22 -39t1.5 -57q11 -47 54 -84t103 -37q66 0 95 37h151q-11 -73 -65 -122t-150 -49q-116 0 -207.5 76.5t-115.5 180.5q-15 66 4 125t59 85l-13 60q-9 48 -5 90.5t38 71t94 28.5
q155 0 206 -159h-133q-13 30 -43 29q-34 -1 -22 -59z" />
    <glyph glyph-name="ghainarabic" unicode="&#x63a;" horiz-adv-x="563" arabic-form="isolated" 
d="M210 356l4 -15q61 11 215 -1l30 -129q-84 6 -151 6q-24 0 -45.5 -3t-45 -11.5t-37 -23.5t-22 -39t1.5 -57q11 -47 54 -84t103 -37q66 0 95 37h151q-11 -73 -65 -122t-150 -49q-116 0 -207.5 76.5t-115.5 180.5q-15 66 4 125t59 85l-13 60q-9 48 -5 90.5t38 71t94 28.5
q155 0 206 -159h-133q-13 30 -43 29q-34 -1 -22 -59zM82 748h136l27 -116h-136z" />
    <glyph glyph-name="feharabic" unicode="&#x641;" horiz-adv-x="818" arabic-form="isolated" 
d="M593 133h-359q-33 0 -63 20.5t-42 48.5q-9 20 -9 41t4 32l5 11q-47 34 -116 86q-40 -78 -13 -170q22 -79 101.5 -140.5t168.5 -61.5h366q48 0 79.5 16t44.5 38t16.5 52.5t1 51t-7.5 43.5l-66 290q-180 0 -223 -5q-123 -13 -145 -80q-10 -32 -1 -79q12 -62 67 -99.5
t112 -37.5q79 0 111 53l1 -1l11 -49q7 -29 -5 -44.5t-39 -15.5zM587 415q6 -27 8 -45t1 -41.5t-15.5 -36t-40.5 -12.5q-28 0 -50.5 18t-29.5 46q-5 21 2 35.5t21.5 21t33 11t37 3.5t33.5 0zM413 695h136l27 -116h-136z" />
    <glyph glyph-name="qafarabic" unicode="&#x642;" horiz-adv-x="694" arabic-form="isolated" 
d="M513 203l-33 143q-69 10 -103.5 -32.5t-19.5 -113.5q7 -32 32.5 -61.5t64.5 -30.5q35 -1 52 24t7 71zM481 1h-1q-21 -2 -33 -1q-71 4 -135 59.5t-81 123.5q-12 50 -9.5 92.5t23 81t64 60t113 29t171.5 -11.5l63 -271q35 -150 -37.5 -242.5t-213.5 -92.5
q-133 0 -249.5 97.5t-149.5 239.5q-19 90 -13 153h139q-16 -61 5 -153q19 -80 91 -141t146 -61q64 0 107 38zM390 648h136l27 -116h-136zM192 648h136l27 -116h-136z" />
    <glyph glyph-name="kafarabic" unicode="&#x643;" horiz-adv-x="858" arabic-form="isolated" 
d="M676 0h-406q-89 0 -168.5 61.5t-101.5 140.5q-27 92 13 170l116 -86q-20 -39 0 -84q12 -28 42 -48.5t63 -20.5h400q57 0 43 60l-105 455h136l103 -447q5 -22 7.5 -43t-1.5 -51.5t-17 -52.5t-44.5 -38t-79.5 -16zM224 337h197q24 0 46 11.5t28 36.5l-60 45q-3 -17 -28 -17
h-65l-7 33q-11 40 16 40q26 0 34 -27h73q-32 101 -124 101q-50 0 -67 -32.5t-5 -81.5l7 -33h-40z" />
    <glyph glyph-name="lamarabic" unicode="&#x644;" horiz-adv-x="694" arabic-form="isolated" 
d="M521 168l-111 480h134l112 -485q35 -150 -37.5 -242.5t-213.5 -92.5q-133 0 -249.5 97.5t-149.5 239.5q-19 90 -13 153h139q-16 -61 5 -153q19 -80 91 -141t146 -61q80 0 123.5 57.5t23.5 147.5z" />
    <glyph glyph-name="meemarabic" unicode="&#x645;" horiz-adv-x="835" arabic-form="isolated" 
d="M303 343q14 60 60.5 98t123.5 38q110 0 190 -72t102 -166q7 -35 7 -70.5t-13.5 -68.5t-34.5 -58t-57 -40t-81 -15q-94 0 -169.5 60.5t-109.5 144.5q-19 -10 -47 -10h-79q-27 0 -39 -16t-5 -44l68 -296h-135l-67 289q-5 22 -7.5 43t1.5 51.5t17 52t45 37.5t79 16h108
q32 0 43 26zM573 104q98 0 67 137q-31 129 -128 129q-98 0 -67 -129q31 -137 128 -137z" />
    <glyph glyph-name="noonarabic" unicode="&#x646;" horiz-adv-x="694" arabic-form="isolated" 
d="M521 168l-64 277h134l65 -282q35 -150 -37.5 -242.5t-213.5 -92.5q-133 0 -249.5 97.5t-149.5 239.5q-19 90 -13 153h139q-16 -61 5 -153q19 -80 91 -141t146 -61q80 0 123.5 57.5t23.5 147.5zM224 367h137l27 -116h-137z" />
    <glyph glyph-name="heharabic" unicode="&#x647;" horiz-adv-x="515" arabic-form="isolated" 
d="M460 238l-55 238h-235q-109 0 -156.5 -65.5t-22.5 -172.5q24 -108 102 -173.5t187 -65.5t156.5 65.5t23.5 173.5zM195 368h96l30 -130q29 -130 -66 -130q-55 0 -85 39.5t-41 90.5q-30 130 66 130z" />
    <glyph glyph-name="wawarabic" unicode="&#x648;" horiz-adv-x="579" arabic-form="isolated" 
d="M412 133l-45 192h-85q-42 0 -60.5 -30t-9.5 -67q9 -39 40.5 -67t74.5 -28h85zM302 -160l-62 119q50 -14 90 -14h2q94 0 105 55h-75q-100 0 -183.5 66t-105.5 162q-22 95 28.5 156t157.5 61h217l94 -410q11 -59 1.5 -98.5t-41 -63.5t-67 -34t-76.5 -10q-43 0 -85 11z" />
    <glyph glyph-name="alefmaksuraarabic" unicode="&#x649;" horiz-adv-x="892" arabic-form="isolated" 
d="M92 234l121 -72q-11 -19 -12.5 -45t8.5 -53t29 -50t52 -38t75 -15h293q46 0 72 21t16 64t-47 64.5t-81 21.5h-174l-39 169q-22 85 20.5 129t120.5 44q77 0 139 -40.5t88 -127.5h-135q-16 40 -60 40q-19 0 -31.5 -11.5t-7.5 -31.5l11 -48h61q51 0 104.5 -20.5t101.5 -70
t64 -118.5q24 -102 -35 -160t-149 -58h-296q-73 0 -135.5 27t-102 70t-65.5 97t-25 108.5t19 103.5z" />
    <glyph glyph-name="yeharabic" unicode="&#x64a;" horiz-adv-x="892" arabic-form="isolated" 
d="M92 234l121 -72q-11 -19 -12.5 -45t8.5 -53t29 -50t52 -38t75 -15h293q46 0 72 21t16 64t-47 64.5t-81 21.5h-174l-39 169q-22 85 20.5 129t120.5 44q77 0 139 -40.5t88 -127.5h-135q-16 40 -60 40q-19 0 -31.5 -11.5t-7.5 -31.5l11 -48h61q51 0 104.5 -20.5t101.5 -70
t64 -118.5q24 -102 -35 -160t-149 -58h-296q-73 0 -135.5 27t-102 70t-65.5 97t-25 108.5t19 103.5zM614 -344h136l-27 115h-136zM415 -344h137l-27 115h-137z" />
    <glyph glyph-name="fathatanarabic" unicode="&#xfe70;" arabic-form="isolated" 
d="M112 796l-65 37l-177 -32l56 -39zM149 722l-62 39l-179 -33l56 -39z" />
    <glyph glyph-name="dammatanarabic" unicode="&#xfe72;" arabic-form="isolated" 
d="M-113 771l-21 17q-15 10 -18 29t5 28q9 13 26.5 13.5t32.5 -10.5q18 -20 1 -44q-12 -12 -26 -33zM-176 677l43 -3l45 54t42 51q17 20 10.5 48t-31.5 48q-33 27 -65.5 26.5t-52.5 -26.5t-12.5 -56.5t38.5 -57.5q18 -15 21 -19q-12 -14 -18 -24q-40 64 -57 70q-5 0 -9 -2.5
t-7 -7.5t-5 -10t-3.5 -12t-2.5 -11t-2 -10t-1 -7l18 -7l12 16q6 -4 15.5 -19t15.5 -28z" />
    <glyph glyph-name="kasratanarabic" unicode="&#xfe74;" arabic-form="isolated" 
d="M208 -295l-65 38l-178 -33l55 -38zM245 -369l-62 39l-180 -32l56 -40z" />
    <glyph glyph-name="fathaarabic" unicode="&#xfe76;" arabic-form="isolated" 
d="M-45 823l-63 37l-180 -32l57 -39z" />
    <glyph glyph-name="dammaarabic" unicode="&#xfe78;" arabic-form="isolated" 
d="M-191 725l-56 5l51 65l-21 17q-31 27 -38.5 58t12.5 57t52.5 26.5t64.5 -26.5q27 -21 33 -48q5 -31 -12 -48l-1 1q-8 -10 -38.5 -48.5t-46.5 -58.5zM-193 840l20 -17q11 12 29 35q18 22 -3 41q-14 11 -31 10.5t-25 -13.5q-11 -9 -8 -27.5t18 -28.5z" />
    <glyph glyph-name="kasraarabic" unicode="&#xfe7a;" arabic-form="isolated" 
d="M208 -295l-65 38l-178 -33l55 -38z" />
    <glyph glyph-name="shaddaarabic" unicode="&#xfe7c;" arabic-form="isolated" 
d="M-106 832l-18 81h-48l18 -81q-4 -10 -18 -10q-22 0 -29 33l-13 58h-48l18 -81q-4 -10 -18 -10q-22 0 -29 33l-13 58h-49l14 -64q9 -37 35.5 -56.5t51.5 -17.5q22 3 38 19q22 -19 51 -19q22 0 39 14t18 43z" />
    <glyph glyph-name="sukunarabic" unicode="&#xfe7e;" arabic-form="isolated" 
d="M-97 817q10 -43 -12 -60.5t-56 -17.5q-86 0 -104 78q-9 41 15.5 67t48.5 26t61.5 -26t46.5 -67zM-141 817q-5 21 -24 35.5t-29 14.5q-11 0 -21.5 -14.5t-5.5 -35.5q7 -33 46 -33q17 0 27.5 7.5t6.5 25.5z" />
    <glyph glyph-name="alefwaslaisolated" unicode="&#x671;" horiz-adv-x="278" arabic-form="isolated" 
d="M-21 648l299 -648h-134l-298 648h133zM-200 814l9 -26q12 36 58 36q32 0 66 -18t49 -51q13 -30 1.5 -48.5t-39.5 -18.5h-163l-8 40h26l-38 86h39zM-165 728h85q13 0 19.5 8t0.5 18q-7 16 -23 24.5t-28 8.5q-33 2 -46 -17.5t-8 -41.5z" />
    <glyph glyph-name="peharabic" unicode="&#x67e;" horiz-adv-x="858" arabic-form="isolated" 
d="M676 0h-406q-90 0 -183.5 61.5t-132.5 140.5q-48 91 -26 170l134 -86q-11 -39 20 -84q18 -27 53 -48t68 -21h400q57 0 29 60l-116 252h136l112 -244q10 -23 17.5 -43.5t11 -51t-4.5 -52.5t-36 -38t-76 -16zM568 -172h136l-52 115h-136zM370 -172h136l-52 115h-136z
M548 -331h126l-50 108h-126z" />
    <glyph glyph-name="tcheharabic" unicode="&#x686;" horiz-adv-x="583" arabic-form="isolated" 
d="M583 0h-150q-17 -42 -87 -42q-74 0 -138.5 51.5t-86.5 115.5q-21 64 -6.5 107.5t53 70t79.5 41t73 18.5l31 5l-18 89q-91 -20 -178 -5q-11 2 -35.5 7t-37 7.5t-35.5 6t-36 3.5t-32.5 -1t-31 -6t-25 -13.5t-21 -21t-13.5 -31t-7 -41.5h116q5 24 40.5 24.5t58.5 -13.5
q-23 -7 -47.5 -24.5t-48 -48.5t-27.5 -71.5t13 -93.5q45 -127 165 -216.5t253 -89.5q88 0 134 48.5t45 123.5zM337 157h104l-40 88h-104zM187 157h104l-40 88h-104zM322 37h95l-38 81h-95z" />
    <glyph glyph-name="jeharabic" unicode="&#x698;" horiz-adv-x="420" arabic-form="isolated" 
d="M78 446l172 -376q23 -47 13 -74.5t-31 -39t-48 -11.5q-26 0 -57 5.5t-49 11.5l-19 6l74 -111q59 -23 123 -28t106.5 20.5t52.5 79.5t-27 136l-174 381h-136zM-2 616h135l54 -116h-136zM-199 616h135l54 -116h-135zM-168 775h126l49 -108h-125z" />
    <glyph glyph-name="veharabic" unicode="&#x6a4;" horiz-adv-x="818" arabic-form="isolated" 
d="M562 133h-359q-33 0 -68 21t-53 48q-14 20 -19 41t-3 32l2 11q-54 34 -134 86q-22 -79 26 -170q39 -79 132.5 -140.5t183.5 -61.5h366q40 0 66.5 10.5t36.5 29.5t13.5 39t-3 45t-12.5 42t-14 35l-133 290q-179 0 -221 -5q-116 -13 -126 -74q-6 -34 16 -85
q26 -62 90 -99.5t121 -37.5q79 0 98 53l2 -1l22 -49q13 -29 5 -44.5t-35 -15.5zM491 415q12 -27 18.5 -44.5t10.5 -41.5t-7.5 -36.5t-37.5 -12.5q-28 0 -54.5 18t-40.5 46q-8 17 -7 30.5t9.5 20.5t21.5 12t28.5 6t30.5 2t28 0zM359 696h136l54 -116h-136zM161 696h136
l54 -116h-136zM191 855h126l50 -108h-126z" />
    <glyph glyph-name="alefwaslafinal" unicode="&#x671;" horiz-adv-x="416" arabic-form="final" 
d="M421 0h-97q-48 0 -87 16t-62 38t-40.5 52.5t-25 51.5t-12.5 43l-102 447h133l105 -455q14 -60 71 -60h86zM-13 814l3 -26q21 36 67 36q32 0 61.5 -18t37.5 -51q7 -29 -9 -48t-45 -19h-163l2 40h26l-19 86h39zM3 728h85q13 0 21 8t5 18q-3 17 -17.5 25t-26.5 8
q-32 2 -49.5 -17.5t-17.5 -41.5z" />
    <glyph glyph-name="pehfinalarabic" unicode="&#x67e;" horiz-adv-x="1015" arabic-form="final" 
d="M676 0h-406q-89 0 -168.5 61.5t-101.5 140.5q-27 92 13 170l116 -86q-20 -39 0 -84q12 -28 42 -48.5t63 -20.5h400q57 0 43 60l-58 252h136l49 -215q11 -45 42.5 -71t76.5 -26h66l31 -133h-58q-90 0 -157 65q-31 -65 -129 -65zM529 -172h136l-26 115h-136zM331 -172h136
l-26 115h-136zM472 -331h126l-25 108h-126z" />
    <glyph glyph-name="pehinitialarabic" unicode="&#x67e;" horiz-adv-x="311" arabic-form="initial" 
d="M130 0h-130l-30 133h117q27 0 39 15.5t5 44.5l-58 252h135l56 -244q5 -23 7.5 -43.5t-1 -51t-16.5 -52.5t-44.5 -38t-79.5 -16zM184 -172h137l-26 115h-137zM-13 -172h135l-26 115h-135zM127 -331h127l-25 108h-127z" />
    <glyph glyph-name="pehmedialarabic" unicode="&#x67e;" horiz-adv-x="468" arabic-form="medial" 
d="M133 0h-137l-30 133h98q79 0 61 80l-46 201h135l42 -184q11 -45 42.5 -71t76.5 -26h67l31 -133h-59q-92 0 -160 70q-11 -32 -43 -51t-78 -19zM214 -172h136l-26 115h-136zM16 -172h136l-26 115h-135zM157 -331h126l-25 108h-126z" />
    <glyph glyph-name="vehfinalarabic" unicode="&#x6a4;" horiz-adv-x="988" arabic-form="final" 
d="M234 133h260q-61 65 -76 129q-20 85 25 150.5t140 65.5t170.5 -65.5t95.5 -150.5q6 -50 1.5 -72t-19.5 -57h130l31 -133h-198q-55 0 -106 22q-32 -22 -91 -22h-327q-89 0 -168.5 61.5t-101.5 140.5q-27 92 13 170l116 -86q-20 -39 0 -84q12 -28 42 -48.5t63 -20.5z
M553 262q8 -31 34 -56.5t48 -35.5l22 -10q3 1 7.5 4t15.5 12.5t19 20.5t13 28.5t1 36.5q-8 33 -34.5 60t-65.5 27q-38 0 -53 -27t-7 -60zM565 692h136l27 -116h-136zM367 692h136l27 -116h-136zM434 850h126l25 -107h-126z" />
    <glyph glyph-name="vehinitialarabic" unicode="&#x6a4;" horiz-adv-x="446" arabic-form="initial" 
d="M253 242l-1 1q-30 -53 -110 -53q-57 0 -111.5 37.5t-66.5 99.5q-22 111 74 144q59 21 226 20h68l66 -290q5 -22 7.5 -43t-1.5 -51.5t-17 -52.5t-44.5 -38t-78.5 -16h-268l-30 133h255q57 0 43 60zM214 415q-14 -1 -32.5 0t-37 -3.5t-33 -11t-21.5 -21t-2 -35.5
q7 -28 29.5 -46t50.5 -18q26 0 40.5 12.5t15.5 36.5t-1.5 41.5t-8.5 44.5zM148 696h136l27 -116h-136zM-50 696h136l27 -116h-136zM16 855h127l25 -108h-127z" />
    <glyph glyph-name="vehmedialarabic" unicode="&#x6a4;" horiz-adv-x="587" arabic-form="medial" 
d="M182 478q95 0 170.5 -65.5t95.5 -150.5q6 -50 1.5 -72t-19.5 -57h130l31 -133h-198q-55 0 -106 22q-32 -22 -91 -22h-200l-30 133h127q-61 65 -76 129q-19 86 25.5 151t139.5 65zM152 262q8 -31 34 -56.5t48 -35.5l22 -10q3 1 7.5 4t15.5 12.5t19 20.5t13 28.5t1 36.5
q-8 33 -34.5 60t-65.5 27q-38 0 -53 -27t-7 -60zM162 692h136l27 -116h-136zM-35 692h135l27 -116h-135zM31 850h126l25 -107h-126z" />
    <glyph glyph-name="tchehfinalarabic" unicode="&#x686;" horiz-adv-x="619" arabic-form="final" 
d="M293 331q-163 -65 -143 -206q7 -64 60 -115.5t127 -51.5q46 0 75 20l151 -34q-27 -53 -77.5 -84.5t-120.5 -31.5q-132 0 -232 89.5t-117 216.5q-7 49 9 93t45 72.5t58 47t54 25.5q-19 14 -54.5 13.5t-47.5 -24.5h-116q7 23 17 41.5t20.5 31t26 21t28 13.5t32.5 6t33 1
t35 -3.5t34.5 -6t36 -7.5t33.5 -7q82 -15 179 5l-3 -89q-11 -1 -26 -4q-13 -29 4 -102l16 -68q14 -60 71 -60h91l31 -133h-69q-51 0 -92 14.5t-65.5 34.5t-43 48t-26 48.5t-12.5 41.5l-19 84q-11 46 -3 60zM261 110h58l-11 50h-58zM176 110h59l-11 50h-59zM237 41h53l-11 47
h-53z" />
    <glyph glyph-name="tchehinitialarabic" unicode="&#x686;" horiz-adv-x="644" arabic-form="initial" 
d="M121 250l-126 -1q-23 108 40 165t163 57q138 0 260 -98t155 -240l31 -133h-648l-30 133h511q-21 95 -90.5 156.5t-161.5 61.5q-54 0 -83 -24t-21 -77zM386 -172h136l-26 115h-136zM188 -172h136l-26 115h-136zM329 -331h126l-25 108h-126z" />
    <glyph glyph-name="tchehmedialarabic" unicode="&#x686;" horiz-adv-x="787" arabic-form="medial" 
d="M121 250l-126 -1q-23 108 40 165t163 57q138 0 260 -98t155 -240h147l31 -133h-795l-30 133h511q-21 95 -90.5 156.5t-161.5 61.5q-54 0 -83 -24t-21 -77zM386 -172h136l-26 115h-136zM188 -172h136l-26 115h-136zM329 -331h126l-25 108h-126z" />
    <glyph glyph-name="jehfinalarabic" unicode="&#x698;" horiz-adv-x="579" arabic-form="final" 
d="M410 31q13 -100 -45 -154.5t-148 -47.5q-28 2 -57 9t-44 13l-16 6l-48 111q62 -23 120 -23q45 0 77 30.5t18 94.5l-79 344h136l44 -189q11 -42 42 -67t75 -25h68l31 -133h-60q-64 0 -114 31zM140 616h136l27 -116h-136zM-57 616h135l27 -116h-135zM10 775h126l25 -108
h-126z" />
    <glyph glyph-name="alefmaksurainitialarabic" unicode="&#x6cc;" horiz-adv-x="311" arabic-form="initial" 
d="M130 0h-130l-30 133h117q27 0 39 15.5t5 44.5l-58 252h135l56 -244q5 -23 7.5 -43.5t-1 -51t-16.5 -52.5t-44.5 -38t-79.5 -16zM188 -57h136l26 -115h-136zM-9 -57h135l26 -115h-136z" />
    <glyph glyph-name="alefmaksuramedialarabic" unicode="&#x6cc;" horiz-adv-x="468" arabic-form="medial" 
d="M133 0h-137l-30 133h98q79 0 61 80l-46 201h135l42 -184q11 -45 42.5 -71t76.5 -26h67l31 -133h-59q-92 0 -160 70q-11 -32 -43 -51t-78 -19zM214 -172h136l-26 115h-136zM16 -172h136l-26 115h-135z" />
    <glyph glyph-name="shaddadammatanarabic" unicode="&#xfc5e;" arabic-form="isolated" 
d="M-106 832l-18 81h-48l18 -81q-4 -10 -18 -10q-22 0 -29 33l-13 58h-48l18 -81q-4 -10 -18 -10q-22 0 -29 33l-13 58h-49l14 -64q9 -37 35.5 -56.5t51.5 -17.5q22 3 38 19q22 -19 51 -19q22 0 39 14t18 43zM-258 1003l-11 23q-9 15 -2.5 29.5t19.5 19.5q16 5 33.5 -3.5
t25.5 -23.5q10 -23 -22 -34q-7 -1 -43 -11zM-367 962l40 -23q79 20 140 37l-1 -1q28 6 37 30.5t-6 52.5q-18 36 -50 51.5t-66 6.5q-33 -9 -42 -36.5t7 -62.5q11 -21 12 -25q-27 -6 -31 -8q-6 68 -20 81q-19 10 -60 -31l14 -14l21 6q3 -6 4.5 -22t1.5 -29z" />
    <glyph glyph-name="shaddakasratanarabic" unicode="&#xfc5f;" arabic-form="isolated" 
d="M-158 997l-19 82h-49l19 -81q-3 -10 -18 -10q-21 0 -28 33l-14 58h-48l19 -81q-6 -10 -19 -10q-22 0 -29 33l-14 58h-48l15 -64q8 -37 34.5 -56.5t51.5 -17.5q24 3 38 19q22 -19 51 -19q22 0 39.5 14t18.5 42zM-123 878l-65 38l-179 -32l56 -39zM-86 805l-62 38l-180 -32
l57 -40z" />
    <glyph glyph-name="shaddafathaarabic" unicode="&#xfc60;" arabic-form="isolated" 
d="M-137 980l-64 37l-179 -32l56 -39zM-106 832l-18 81h-48l18 -81q-4 -10 -18 -10q-22 0 -29 33l-13 58h-48l18 -81q-4 -10 -18 -10q-22 0 -29 33l-13 58h-49l14 -64q9 -37 35.5 -56.5t51.5 -17.5q22 3 38 19q22 -19 51 -19q22 0 39 14t18 43z" />
    <glyph glyph-name="shaddadammaarabicX" unicode="&#xfc61;" arabic-form="isolated" 
d="M-106 832l-18 81h-48l18 -81q-4 -10 -18 -10q-22 0 -29 33l-13 58h-48l18 -81q-4 -10 -18 -10q-22 0 -29 33l-13 58h-49l14 -64q9 -37 35.5 -56.5t51.5 -17.5q22 3 38 19q22 -19 51 -19q22 0 39 14t18 43zM-332 937l-50 35l87 18l-12 24q-13 35 -1 61.5t46 32.5
q34 8 65.5 -10t46.5 -55q12 -29 3 -51q-10 -24 -40 -28l1 1q-27 -5 -79.5 -15t-66.5 -13zM-266 1020l10 -23q14 2 48 9q13 2 19.5 9.5t0.5 20.5q-6 16 -23 25t-33 5q-15 -2 -22.5 -16t0.5 -30z" />
    <glyph glyph-name="shaddakasraarabic" unicode="&#xfc62;" arabic-form="isolated" 
d="M-63 801l-65 38l-179 -33l56 -38zM-121 919l-18 81h-48l18 -81q-3 -10 -18 -10q-21 0 -28 33l-13 58h-49l18 -81q-4 -10 -17 -10q-23 0 -30 33l-13 58h-48l14 -64q9 -37 35 -56.5t51 -17.5q22 3 38 19q22 -19 51 -19q22 0 39 14.5t18 42.5z" />
    <glyph glyph-name="alefwithfathatanfinal" unicode="&#xfd3c;" horiz-adv-x="416" arabic-form="final" 
d="M421 0h-97q-48 0 -87 16t-62 38t-40.5 52.5t-25 51.5t-12.5 43l-102 447h133l105 -455q14 -60 71 -60h86zM112 796l-65 37l-177 -32l56 -39zM149 722l-62 39l-179 -33l56 -39z" />
    <glyph glyph-name="alefwithfathatanisolated" unicode="&#xfd3d;" horiz-adv-x="278" arabic-form="isolated" 
d="M128 648l150 -648h-134l-149 648h133zM112 796l-65 37l-177 -32l56 -39zM149 722l-62 39l-179 -33l56 -39z" />
    <glyph glyph-name="allahisolated" unicode="&#xfdf2;" horiz-adv-x="1204" arabic-form="isolated" 
d="M511 0h154q46 0 78 19t43 51q68 -70 160 -70h77q48 0 79.5 16t44.5 38t16.5 52.5t1 51t-7.5 43.5l-103 447h-135l105 -455q7 -29 -5 -44.5t-39 -15.5h-73q-45 0 -76.5 26t-42.5 71l-96 418h-135l100 -435q18 -80 -61 -80h-104q-57 0 -71 60l-72 310l-127 -33l8 -34
q-134 -1 -198.5 -52t-36.5 -163q16 -67 78.5 -120t133.5 -57q80 -5 119 54q63 -98 185 -98zM249 353l27 -119q11 -46 -6.5 -71t-52.5 -24q-38 1 -63.5 30.5t-32.5 61.5q-12 64 27.5 93t100.5 29zM708 746l-18 81h-48l18 -81q-4 -10 -18 -10q-22 0 -29 33l-13 58h-48l18 -81
q-4 -10 -18 -10q-22 0 -29 33l-13 58h-49l14 -64q9 -37 35 -56.5t51 -17.5q23 3 39 19q22 -19 50 -19q22 0 39.5 14.5t18.5 42.5z" />
    <glyph glyph-name="alefmaddaabovefinalarabic" unicode="&#x622;" horiz-adv-x="416" arabic-form="final" 
d="M421 0h-97q-48 0 -87 16t-62 38t-40.5 52.5t-25 51.5t-12.5 43l-102 447h133l105 -455q14 -60 71 -60h86zM-15 700h-38q-7 32 3.5 56.5t33.5 25.5q9 1 23.5 -5t34 -17t29.5 -15q27 -9 32 -1t1 22h38q7 -33 -4 -57.5t-33 -25.5q-10 0 -24.5 6t-34.5 16.5t-30 14.5
q-25 9 -30.5 1.5t-0.5 -21.5z" />
    <glyph glyph-name="alefhamzaabovefinalarabic" unicode="&#x623;" horiz-adv-x="416" arabic-form="final" 
d="M421 0h-97q-48 0 -87 16t-62 38t-40.5 52.5t-25 51.5t-12.5 43l-102 447h133l105 -455q14 -60 71 -60h86zM-49 704h131q42 0 49 32l-40 30q0 -6 -4.5 -9t-8.5 -3h-5h-44l-5 23q-5 27 12 27t21 -18h50q-22 67 -82 67q-33 0 -44.5 -22t-4.5 -54l5 -23h-27z" />
    <glyph glyph-name="wawhamzaabovefinalarabic" unicode="&#x624;" horiz-adv-x="720" arabic-form="final" 
d="M302 -160l-62 119q50 -14 90 -14q95 0 107 55h-75q-100 0 -183.5 66t-105.5 162q-22 95 28.5 156t157.5 61h217l72 -312h146l31 -133h-149q5 -48 -11.5 -83.5t-48 -54t-67 -26.5t-74.5 -7q-35 1 -73 11zM412 133l-45 192h-85q-42 0 -60.5 -30t-9.5 -67q9 -39 40.5 -67
t74.5 -28h85zM120 532h197q24 0 46 11.5t28 35.5l-61 45q-2 -17 -27 -17h-65l-7 33q-11 41 16 41t33 -27h74q-31 100 -124 100q-50 0 -67 -32.5t-5 -81.5l7 -33h-40z" />
    <glyph glyph-name="alefhamzabelowfinalarabic" unicode="&#x625;" horiz-adv-x="416" arabic-form="final" 
d="M421 0h-97q-48 0 -87 16t-62 38t-40.5 52.5t-25 51.5t-12.5 43l-102 447h133l105 -455q14 -60 71 -60h86zM151 -196h132q41 0 49 31l-40 30q-2 -11 -19 -11h-44l-5 22q-5 27 12 27t22 -18h50q-21 67 -83 67q-33 0 -44.5 -21.5t-4.5 -54.5l5 -22h-27z" />
    <glyph glyph-name="yehhamzaabovefinalarabic" unicode="&#x626;" horiz-adv-x="1149" arabic-form="final" 
d="M800 328h-224q-28 0 -29 -20q-2 -25 41 -47q10 -5 41 -21t41.5 -21.5t36 -20.5t36 -24t28.5 -25t27 -30t18 -33.5t14 -40.5q23 -101 -36.5 -159.5t-149.5 -58.5h-296q-61 0 -115 19t-92.5 51t-67 73.5t-41.5 86.5t-11.5 91t18.5 85l120 -72q-11 -18 -12.5 -44t8.5 -53
t29 -50t52 -38t75 -15h294q45 0 71.5 20.5t15.5 63.5q-3 10 -7.5 19t-14.5 18.5t-17.5 16t-25.5 17.5t-29 17.5t-38 21.5t-42 24q-37 21 -62.5 55.5t-31.5 70t3 67.5t42.5 52.5t85.5 20.5h353l58 -252q14 -60 71 -60h86l31 -133h-97q-48 0 -87 16t-62.5 38t-41 52.5
t-25 51.5t-12.5 43zM-26 283h196q25 0 47 11.5t27 35.5l-59 45q-3 -17 -28 -17h-65l-8 33q-9 40 17 40q25 0 33 -26h73q-30 100 -123 100q-50 0 -66.5 -32.5t-6.5 -81.5l8 -33h-39z" />
    <glyph glyph-name="yehhamzaaboveinitialarabic" unicode="&#x626;" horiz-adv-x="311" arabic-form="initial" 
d="M130 0h-130l-30 133h117q27 0 39 15.5t5 44.5l-58 252h135l56 -244q5 -23 7.5 -43.5t-1 -51t-16.5 -52.5t-44.5 -38t-79.5 -16zM-134 532h196q24 0 46 11.5t28 35.5l-60 45q-3 -17 -28 -17h-64l-7 33q-11 41 16 41q25 0 33 -27h73q-31 100 -123 100q-50 0 -67 -32.5
t-5 -81.5l7 -33h-40z" />
    <glyph glyph-name="yehhamzaabovemedialarabic" unicode="&#x626;" horiz-adv-x="468" arabic-form="medial" 
d="M133 0h-137l-30 133h98q79 0 61 80l-46 201h135l42 -184q11 -45 42.5 -71t76.5 -26h67l31 -133h-59q-92 0 -160 70q-11 -32 -43 -51t-78 -19zM-96 500h195q25 0 47 11.5t27 35.5l-59 45q-3 -17 -27 -17h-66l-8 33q-9 41 17 41q25 0 33 -27h74q-31 100 -124 100
q-49 0 -65.5 -32.5t-5.5 -81.5l8 -33h-41z" />
    <glyph glyph-name="aleffinalarabic" unicode="&#x627;" horiz-adv-x="416" arabic-form="final" 
d="M421 0h-97q-48 0 -87 16t-62 38t-40.5 52.5t-25 51.5t-12.5 43l-102 447h133l105 -455q14 -60 71 -60h86z" />
    <glyph glyph-name="behfinalarabic" unicode="&#x628;" horiz-adv-x="1015" arabic-form="final" 
d="M676 0h-406q-89 0 -168.5 61.5t-101.5 140.5q-27 92 13 170l116 -86q-20 -39 0 -84q12 -28 42 -48.5t63 -20.5h400q57 0 43 60l-58 252h136l49 -215q11 -45 42.5 -71t76.5 -26h66l31 -133h-58q-90 0 -157 65q-31 -65 -129 -65zM406 -57h136l26 -115h-136z" />
    <glyph glyph-name="behinitialarabic" unicode="&#x628;" horiz-adv-x="311" arabic-form="initial" 
d="M130 0h-130l-30 133h117q27 0 39 15.5t5 44.5l-58 252h135l56 -244q5 -23 7.5 -43.5t-1 -51t-16.5 -52.5t-44.5 -38t-79.5 -16zM158 -57h137l26 -115h-137z" />
    <glyph glyph-name="behmedialarabic" unicode="&#x628;" horiz-adv-x="468" arabic-form="medial" 
d="M133 0h-137l-30 133h98q79 0 61 80l-46 201h135l42 -184q11 -45 42.5 -71t76.5 -26h67l31 -133h-59q-92 0 -160 70q-11 -32 -43 -51t-78 -19zM186 -57h136l26 -115h-136z" />
    <glyph glyph-name="tehmarbutafinalarabic" unicode="&#x629;" horiz-adv-x="604" arabic-form="final" 
d="M608 0h-97q-122 0 -185 98q-39 -59 -119 -54q-71 4 -133.5 57t-78.5 120q-28 112 36.5 163t198.5 52l-8 34l127 33l72 -310q14 -60 71 -60h85zM276 234l-27 119q-61 0 -100.5 -29t-27.5 -93q7 -32 32.5 -61.5t63.5 -30.5q35 -1 52.5 24t6.5 71zM126 660h136l27 -116h-136
zM-71 660h135l27 -116h-135z" />
    <glyph glyph-name="tehfinalarabic" unicode="&#x62a;" horiz-adv-x="1015" arabic-form="final" 
d="M676 0h-406q-89 0 -168.5 61.5t-101.5 140.5q-27 92 13 170l116 -86q-20 -39 0 -84q12 -28 42 -48.5t63 -20.5h400q57 0 43 60l-58 252h136l49 -215q11 -45 42.5 -71t76.5 -26h66l31 -133h-58q-90 0 -157 65q-31 -65 -129 -65zM383 433h136l26 -115h-136zM184 433h137
l26 -115h-137z" />
    <glyph glyph-name="tehinitialarabic" unicode="&#x62a;" horiz-adv-x="311" arabic-form="initial" 
d="M130 0h-130l-30 133h117q27 0 39 15.5t5 44.5l-58 252h135l56 -244q5 -23 7.5 -43.5t-1 -51t-16.5 -52.5t-44.5 -38t-79.5 -16zM25 648h136l27 -116h-136zM-172 648h136l27 -116h-136z" />
    <glyph glyph-name="tehmedialarabic" unicode="&#x62a;" horiz-adv-x="468" arabic-form="medial" 
d="M133 0h-137l-30 133h98q79 0 61 80l-46 201h135l42 -184q11 -45 42.5 -71t76.5 -26h67l31 -133h-59q-92 0 -160 70q-11 -32 -43 -51t-78 -19zM23 648h136l27 -116h-136zM-174 648h136l27 -116h-136z" />
    <glyph glyph-name="thehfinalarabic" unicode="&#x62b;" horiz-adv-x="1015" arabic-form="final" 
d="M676 0h-406q-95 0 -175 66.5t-99 151.5q-19 86 17 154l116 -86q-2 -3 -3.5 -9t-4.5 -23.5t2 -33.5q7 -33 39 -60t72 -27h400q57 0 43 60l-58 252h136l49 -215q11 -45 42.5 -71t76.5 -26h66l31 -133h-58q-90 0 -157 65q-31 -65 -129 -65zM353 499h120l24 -103h-120z
M178 499h120l24 -103h-120zM238 641h111l22 -97h-111z" />
    <glyph glyph-name="thehinitialarabic" unicode="&#x62b;" horiz-adv-x="311" arabic-form="initial" 
d="M130 0h-130l-30 133h117q27 0 39 15.5t5 44.5l-58 252h135l56 -244q5 -23 7.5 -43.5t-1 -51t-16.5 -52.5t-44.5 -38t-79.5 -16zM41 643h120l24 -103h-120zM-133 643h120l23 -103h-119zM-74 785h110l23 -97h-110z" />
    <glyph glyph-name="thehmedialarabic" unicode="&#x62b;" horiz-adv-x="468" arabic-form="medial" 
d="M133 0h-137l-30 133h98q79 0 61 80l-46 201h135l42 -184q11 -45 42.5 -71t76.5 -26h67l31 -133h-59q-92 0 -160 70q-11 -32 -43 -51t-78 -19zM124 613h120l24 -103h-120zM-50 613h119l24 -103h-119zM8 755h111l23 -97h-111z" />
    <glyph glyph-name="jeemfinalarabic" unicode="&#x62c;" horiz-adv-x="619" arabic-form="final" 
d="M293 331q-163 -65 -143 -206q7 -64 60 -115.5t127 -51.5q46 0 75 20l151 -34q-27 -53 -77.5 -84.5t-120.5 -31.5q-132 0 -232 89.5t-117 216.5q-7 49 9 93t45 72.5t58 47t54 25.5q-19 14 -54.5 13.5t-47.5 -24.5h-116q7 23 17 41.5t20.5 31t26 21t28 13.5t32.5 6t33 1
t35 -3.5t34.5 -6t36 -7.5t33.5 -7q82 -15 179 5l-3 -89q-11 -1 -26 -4q-13 -29 4 -102l16 -68q14 -60 71 -60h91l31 -133h-69q-51 0 -92 14.5t-65.5 34.5t-43 48t-26 48.5t-12.5 41.5l-19 84q-11 46 -3 60zM170 177h124l24 -106h-124z" />
    <glyph glyph-name="jeeminitialarabic" unicode="&#x62c;" horiz-adv-x="644" arabic-form="initial" 
d="M121 249h-126q-23 108 40 165t163 57q138 0 260 -98t155 -240l31 -133h-644l-30 133h507q-21 95 -90.5 156.5t-161.5 61.5q-54 0 -83 -24.5t-21 -77.5zM261 -57h136l26 -115h-136z" />
    <glyph glyph-name="jeemmedialarabic" unicode="&#x62c;" horiz-adv-x="787" arabic-form="medial" 
d="M121 249h-126q-23 108 40 165t163 57q138 0 260 -98t155 -240h147l31 -133h-795l-30 133h511q-21 95 -90.5 156.5t-161.5 61.5q-54 0 -83 -24.5t-21 -77.5zM261 -57h136l26 -115h-136z" />
    <glyph glyph-name="hahfinalarabic" unicode="&#x62d;" horiz-adv-x="619" arabic-form="final" 
d="M293 331q-163 -65 -143 -206q7 -64 60 -115.5t127 -51.5q46 0 75 20l151 -34q-27 -53 -77.5 -84.5t-120.5 -31.5q-132 0 -232 89.5t-117 216.5q-7 49 9 93t45 72.5t58 47t54 25.5q-19 14 -54.5 13.5t-47.5 -24.5h-116q7 23 17 41.5t20.5 31t26 21t28 13.5t32.5 6t33 1
t35 -3.5t34.5 -6t36 -7.5t33.5 -7q82 -15 179 5l-3 -89q-11 -1 -26 -4q-13 -29 4 -102l16 -68q14 -60 71 -60h91l31 -133h-69q-51 0 -92 14.5t-65.5 34.5t-43 48t-26 48.5t-12.5 41.5l-19 84q-11 46 -3 60z" />
    <glyph glyph-name="hahinitialarabic" unicode="&#x62d;" horiz-adv-x="644" arabic-form="initial" 
d="M121 249h-126q-23 108 40 165t163 57q138 0 260 -98t155 -240l31 -133h-644l-30 133h507q-21 95 -90.5 156.5t-161.5 61.5q-54 0 -83 -24.5t-21 -77.5z" />
    <glyph glyph-name="hahmedialarabic" unicode="&#x62d;" horiz-adv-x="787" arabic-form="medial" 
d="M121 249h-126q-23 108 40 165t163 57q138 0 260 -98t155 -240h147l31 -133h-795l-30 133h511q-21 95 -90.5 156.5t-161.5 61.5q-54 0 -83 -24.5t-21 -77.5z" />
    <glyph glyph-name="khahfinalarabic" unicode="&#x62e;" horiz-adv-x="619" arabic-form="final" 
d="M293 331q-163 -65 -143 -206q7 -64 60 -115.5t127 -51.5q46 0 75 20l151 -34q-27 -53 -77.5 -84.5t-120.5 -31.5q-132 0 -232 89.5t-117 216.5q-7 49 9 93t45 72.5t58 47t54 25.5q-19 14 -54.5 13.5t-47.5 -24.5h-116q7 23 17 41.5t20.5 31t26 21t28 13.5t32.5 6t33 1
t35 -3.5t34.5 -6t36 -7.5t33.5 -7q82 -15 179 5l-3 -89q-11 -1 -26 -4q-13 -29 4 -102l16 -68q14 -60 71 -60h91l31 -133h-69q-51 0 -92 14.5t-65.5 34.5t-43 48t-26 48.5t-12.5 41.5l-19 84q-11 46 -3 60zM105 694h136l27 -115h-136z" />
    <glyph glyph-name="khahinitialarabic" unicode="&#x62e;" horiz-adv-x="644" arabic-form="initial" 
d="M106 662h137l26 -116h-137zM121 249h-126q-23 108 40 165t163 57q138 0 260 -98t155 -240l31 -133h-644l-30 133h507q-21 95 -90.5 156.5t-161.5 61.5q-54 0 -83 -24.5t-21 -77.5z" />
    <glyph glyph-name="khahmedialarabic" unicode="&#x62e;" horiz-adv-x="787" arabic-form="medial" 
d="M121 249h-126q-23 108 40 165t163 57q138 0 260 -98t155 -240h147l31 -133h-795l-30 133h511q-21 95 -90.5 156.5t-161.5 61.5q-54 0 -83 -24.5t-21 -77.5zM106 662h137l26 -116h-137z" />
    <glyph glyph-name="dalfinalarabic" unicode="&#x62f;" horiz-adv-x="666" arabic-form="final" 
d="M361 133l-42 183q-1 5 -4.5 13t-21 21t-43.5 13q-21 0 -36 -13t-11 -43h-127q-9 45 4 77t40.5 46.5t53 20.5t52.5 6q197 0 238 -174l35 -150h140l31 -133h-544l-31 133h266z" />
    <glyph glyph-name="thalfinalarabic" unicode="&#x630;" horiz-adv-x="666" arabic-form="final" 
d="M361 133l-42 183q-1 5 -4.5 13t-21 21t-43.5 13q-21 0 -36 -13t-11 -43h-127q-9 45 4 77t40.5 46.5t53 20.5t52.5 6q197 0 238 -174l35 -150h140l31 -133h-544l-31 133h266zM116 648h137l27 -116h-137z" />
    <glyph glyph-name="rehfinalarabic" unicode="&#x631;" horiz-adv-x="579" arabic-form="final" 
d="M410 31q13 -100 -45 -154.5t-148 -47.5q-28 2 -57 9t-44 13l-16 6l-48 111q62 -23 120 -23q45 0 77 30.5t18 94.5l-79 344h136l44 -189q11 -42 42 -67t75 -25h68l31 -133h-60q-64 0 -114 31z" />
    <glyph glyph-name="zainfinalarabic" unicode="&#x632;" horiz-adv-x="579" arabic-form="final" 
d="M410 31q13 -100 -45 -154.5t-148 -47.5q-28 2 -57 9t-44 13l-16 6l-48 111q62 -23 120 -23q45 0 77 30.5t18 94.5l-79 344h136l44 -189q11 -42 42 -67t75 -25h68l31 -133h-60q-64 0 -114 31zM141 615h136l26 -115h-136z" />
    <glyph glyph-name="seenfinalarabic" unicode="&#x633;" horiz-adv-x="1444" arabic-form="final" 
d="M521 168l-57 246h134l54 -235q12 -48 42 -76t63 -28q79 0 59 98l-56 241h134l54 -235q12 -48 42 -76t63 -28q79 0 59 98l-63 271h134l51 -219q11 -42 42 -67t75 -25h67l31 -133h-59q-81 0 -143 53q-22 -73 -114 -73q-50 0 -89.5 20t-82.5 65q-5 -35 -44 -60t-80 -25
q-52 0 -92.5 16t-78.5 60q-7 -106 -77.5 -167t-183.5 -61q-133 0 -249.5 97.5t-149.5 239.5q-19 90 -13 153h139q-16 -61 5 -153q19 -80 91 -141t146 -61q80 0 123.5 57.5t23.5 147.5z" />
    <glyph glyph-name="seeninitialarabic" unicode="&#x633;" horiz-adv-x="903" arabic-form="initial" 
d="M130 0h-130l-30 133h117q27 0 39 15.5t5 44.5l-51 221h135l54 -235q12 -48 42 -76t63 -28q79 0 59 98l-56 241h134l54 -235q12 -48 42 -76t63 -28q79 0 59 98l-63 271h134l63 -271q19 -84 -5.5 -138.5t-107.5 -54.5q-50 0 -89.5 20t-82.5 65q-5 -35 -44 -60t-80 -25
q-58 0 -103 20.5t-87 78.5q-26 -79 -134 -79z" />
    <glyph glyph-name="seenmedialarabic" unicode="&#x633;" horiz-adv-x="1057" arabic-form="medial" 
d="M126 0h-130l-30 133h117q57 0 43 60l-51 221h136l54 -235q12 -48 42 -76t63 -28q78 0 58 98l-56 241h135l54 -235q12 -48 42 -76t63 -28q78 0 58 98l-63 271h135l51 -219q11 -42 42 -67t75 -25h66l31 -133h-58q-81 0 -143 53q-23 -73 -114 -73q-50 0 -90 20t-83 65
q-5 -35 -44 -60t-79 -25q-58 0 -103 20.5t-87 78.5q-26 -79 -134 -79z" />
    <glyph glyph-name="sheenfinalarabic" unicode="&#x634;" horiz-adv-x="1444" arabic-form="final" 
d="M521 168l-57 246h134l54 -235q12 -48 42 -76t63 -28q79 0 59 98l-56 241h134l54 -235q12 -48 42 -76t63 -28q79 0 59 98l-63 271h134l51 -219q11 -42 42 -67t75 -25h67l31 -133h-59q-81 0 -143 53q-22 -73 -114 -73q-50 0 -89.5 20t-82.5 65q-5 -35 -44 -60t-80 -25
q-52 0 -92.5 16t-78.5 60q-7 -106 -77.5 -167t-183.5 -61q-133 0 -249.5 97.5t-149.5 239.5q-19 90 -13 153h139q-16 -61 5 -153q19 -80 91 -141t146 -61q80 0 123.5 57.5t23.5 147.5zM603 648h137l27 -116h-137zM802 648h136l27 -116h-136zM671 806h126l25 -107h-126z" />
    <glyph glyph-name="sheeninitialarabic" unicode="&#x634;" horiz-adv-x="903" arabic-form="initial" 
d="M130 0h-130l-30 133h117q27 0 39 15.5t5 44.5l-51 221h135l54 -235q12 -48 42 -76t63 -28q79 0 59 98l-56 241h134l54 -235q12 -48 42 -76t63 -28q79 0 59 98l-63 271h134l63 -271q19 -84 -5.5 -138.5t-107.5 -54.5q-50 0 -89.5 20t-82.5 65q-5 -35 -44 -60t-80 -25
q-58 0 -103 20.5t-87 78.5q-26 -79 -134 -79zM419 648h136l27 -116h-136zM220 648h137l27 -116h-137zM288 806h126l25 -107h-126z" />
    <glyph glyph-name="sheenmedialarabic" unicode="&#x634;" horiz-adv-x="1057" arabic-form="medial" 
d="M126 0h-130l-30 133h117q57 0 43 60l-51 221h136l54 -235q12 -48 42 -76t63 -28q78 0 58 98l-56 241h135l54 -235q12 -48 42 -76t63 -28q78 0 58 98l-63 271h135l51 -219q11 -42 42 -67t75 -25h66l31 -133h-58q-81 0 -143 53q-23 -73 -114 -73q-50 0 -90 20t-83 65
q-5 -35 -44 -60t-79 -25q-58 0 -103 20.5t-87 78.5q-26 -79 -134 -79zM216 648h136l27 -116h-136zM414 648h137l27 -116h-137zM283 806h127l25 -107h-127z" />
    <glyph glyph-name="sadfinalarabic" unicode="&#x635;" horiz-adv-x="1349" arabic-form="final" 
d="M521 168l-59 254h132l12 -86q37 62 104.5 91.5t126.5 29.5q65 0 131.5 -25t122.5 -80t73 -129q12 -49 3 -90h156l31 -133h-696q-21 -81 -88.5 -126.5t-164.5 -45.5q-133 0 -249.5 97.5t-149.5 239.5q-19 90 -13 153h139q-16 -61 5 -153q19 -80 91 -141t146 -61
q80 0 123.5 57.5t23.5 147.5zM655 133h287q42 0 67 26t16 62q-13 55 -59.5 81t-91.5 29q-105 7 -162.5 -58.5t-56.5 -139.5z" />
    <glyph glyph-name="sadinitialarabic" unicode="&#x635;" horiz-adv-x="781" arabic-form="initial" 
d="M159 422l11 -86q38 62 105.5 91.5t126.5 29.5q65 0 131.5 -25t122.5 -80t73 -129q23 -99 -30.5 -161t-150.5 -62h-548l-30 133h124l-67 289h132zM220 133h287q42 0 67 26t16 62q-13 55 -59.5 81t-91.5 29q-105 7 -162.5 -58.5t-56.5 -139.5z" />
    <glyph glyph-name="sadmedialarabic" unicode="&#x635;" horiz-adv-x="910" arabic-form="medial" 
d="M914 0h-918l-30 133h123l-67 289h133l11 -86q37 62 104.5 91.5t126.5 29.5q65 0 132 -25t123 -80t73 -129q11 -49 2 -91h155zM216 133h287q41 0 66.5 26t16.5 62q-7 29 -25.5 51.5t-42 34t-44.5 17.5t-40 7q-105 7 -162 -58.5t-56 -139.5z" />
    <glyph glyph-name="dadfinalarabic" unicode="&#x636;" horiz-adv-x="1349" arabic-form="final" 
d="M521 168l-59 254h132l12 -86q37 62 104.5 91.5t126.5 29.5q65 0 131.5 -25t122.5 -80t73 -129q12 -49 3 -90h156l31 -133h-696q-21 -81 -88.5 -126.5t-164.5 -45.5q-133 0 -249.5 97.5t-149.5 239.5q-19 90 -13 153h139q-16 -61 5 -153q19 -80 91 -141t146 -61
q80 0 123.5 57.5t23.5 147.5zM655 133h287q42 0 67 26t16 62q-13 55 -59.5 81t-91.5 29q-105 7 -162.5 -58.5t-56.5 -139.5zM702 658h136l26 -115h-136z" />
    <glyph glyph-name="dadinitialarabic" unicode="&#x636;" horiz-adv-x="781" arabic-form="initial" 
d="M159 422l11 -86q38 62 105.5 91.5t126.5 29.5q65 0 131.5 -25t122.5 -80t73 -129q23 -99 -30.5 -161t-150.5 -62h-548l-30 133h124l-67 289h132zM220 133h287q42 0 67 26t16 62q-13 55 -59.5 81t-91.5 29q-105 7 -162.5 -58.5t-56.5 -139.5zM267 658h136l26 -115h-136z
" />
    <glyph glyph-name="dadmedialarabic" unicode="&#x636;" horiz-adv-x="910" arabic-form="medial" 
d="M914 0h-918l-30 133h123l-67 289h133l11 -86q37 62 104.5 91.5t126.5 29.5q65 0 132 -25t123 -80t73 -129q11 -49 2 -91h155zM216 133h287q41 0 66.5 26t16.5 62q-7 29 -25.5 51.5t-42 34t-44.5 17.5t-40 7q-105 7 -162 -58.5t-56 -139.5zM262 658h137l26 -115h-137z" />
    <glyph glyph-name="tahfinalarabic" unicode="&#x637;" horiz-adv-x="970" arabic-form="final" 
d="M276 133h287q42 0 67 26t16 62q-13 55 -59.5 81t-92.5 29q-105 7 -162 -58.5t-56 -139.5zM787 132h-1h157l31 -132h-929l24 133h80l-119 515h136l60 -312q37 62 105 91.5t126 29.5q65 0 132 -25t123 -80t73 -129q11 -49 2 -91z" />
    <glyph glyph-name="tahinitialarabic" unicode="&#x637;" horiz-adv-x="781" arabic-form="initial" 
d="M110 648l60 -312q38 62 105.5 91.5t126.5 29.5q65 0 131.5 -25t122.5 -80t73 -129q23 -99 -30.5 -161t-150.5 -62h-548l-30 133h124l-118 515h134zM220 133h287q42 0 67 26t16 62q-13 55 -59.5 81t-91.5 29q-105 7 -162.5 -58.5t-56.5 -139.5z" />
    <glyph glyph-name="tahmedialarabic" unicode="&#x637;" horiz-adv-x="911" arabic-form="medial" 
d="M217 133h288q41 0 66.5 26t16.5 62q-7 29 -25.5 51.5t-42 34t-44.5 17.5t-40 7q-105 7 -162.5 -58.5t-56.5 -139.5zM729 132h-1h157l31 -132h-920l-30 133h125l-118 515h134l61 -312q37 62 104.5 91.5t126.5 29.5q65 0 132 -25t123 -80t73 -129q11 -45 2 -91z" />
    <glyph glyph-name="zahfinalarabic" unicode="&#x638;" horiz-adv-x="970" arabic-form="final" 
d="M276 133h287q42 0 67 26t16 62q-13 55 -59.5 81t-92.5 29q-105 7 -162 -58.5t-56 -139.5zM787 132h-1h157l31 -132h-929l24 133h80l-119 515h136l60 -312q37 62 105 91.5t126 29.5q65 0 132 -25t123 -80t73 -129q11 -49 2 -91zM323 658h136l26 -115h-136z" />
    <glyph glyph-name="zahinitialarabic" unicode="&#x638;" horiz-adv-x="781" arabic-form="initial" 
d="M110 648l60 -312q38 62 105.5 91.5t126.5 29.5q65 0 131.5 -25t122.5 -80t73 -129q23 -99 -30.5 -161t-150.5 -62h-548l-30 133h124l-118 515h134zM220 133h287q42 0 67 26t16 62q-13 55 -59.5 81t-91.5 29q-105 7 -162.5 -58.5t-56.5 -139.5zM267 658h136l26 -115h-136z
" />
    <glyph glyph-name="zahmedialarabic" unicode="&#x638;" horiz-adv-x="911" arabic-form="medial" 
d="M217 133h288q41 0 66.5 26t16.5 62q-7 29 -25.5 51.5t-42 34t-44.5 17.5t-40 7q-105 7 -162.5 -58.5t-56.5 -139.5zM729 132h-1h157l31 -132h-920l-30 133h125l-118 515h134l61 -312q37 62 104.5 91.5t126.5 29.5q65 0 132 -25t123 -80t73 -129q11 -45 2 -91zM264 658
h137l26 -115h-137z" />
    <glyph glyph-name="ainfinalarabic" unicode="&#x639;" horiz-adv-x="745" arabic-form="final" 
d="M401 -28l145 -58q-63 -86 -181 -86q-133 0 -232.5 89t-116.5 216h236q-91 78 -124 122q-3 56 8 98t30 65t47.5 37t52.5 18t53 4h1q204 -2 295 -223q-17 -46 -68 -121h172l31 -133h-206q-54 0 -120 27q-52 -27 -106 -27h-96q50 -42 115 -42q40 0 64 14zM348 356
q-13 0 -28 -4.5t-32.5 -24.5t-19.5 -52q37 -54 123 -106q62 53 74 106q-25 45 -60 63t-57 18z" />
    <glyph glyph-name="aininitialarabic" unicode="&#x639;" horiz-adv-x="562" arabic-form="initial" 
d="M187 219l20 -86h324l31 -133h-562l-30 133h98l-20 85q-12 66 -3.5 122t55.5 93.5t126 37.5q91 0 164 -57.5t96 -155.5h-134q-24 81 -103 81q-42 0 -58.5 -32t-3.5 -88z" />
    <glyph glyph-name="ainmedialarabic" unicode="&#x639;" horiz-adv-x="630" arabic-form="medial" 
d="M203 477h2q203 -2 294 -223q-15 -43 -68 -121h172l31 -133h-206q-53 0 -119 27q-54 -27 -107 -27h-206l-30 133h170q-91 78 -123 122q-13 220 190 222zM232 356q-12 0 -27 -4.5t-32.5 -24.5t-20.5 -52q41 -56 123 -106q60 51 75 106q-25 45 -60.5 63t-57.5 18z" />
    <glyph glyph-name="ghainfinalarabic" unicode="&#x63a;" horiz-adv-x="745" arabic-form="final" 
d="M401 -28l145 -58q-63 -86 -181 -86q-133 0 -232.5 89t-116.5 216h236q-91 78 -124 122q-3 56 8 98t30 65t47.5 37t52.5 18t53 4h1q204 -2 295 -223q-17 -46 -68 -121h172l31 -133h-206q-54 0 -120 27q-52 -27 -106 -27h-96q50 -42 115 -42q40 0 64 14zM348 356
q-13 0 -28 -4.5t-32.5 -24.5t-19.5 -52q37 -54 123 -106q62 53 74 106q-25 45 -60 63t-57 18zM201 692h136l27 -116h-136z" />
    <glyph glyph-name="ghaininitialarabic" unicode="&#x63a;" horiz-adv-x="562" arabic-form="initial" 
d="M187 219l20 -86h324l31 -133h-562l-30 133h98l-20 85q-12 66 -3.5 122t55.5 93.5t126 37.5q91 0 164 -57.5t96 -155.5h-134q-24 81 -103 81q-42 0 -58.5 -32t-3.5 -88zM102 674h137l27 -116h-137z" />
    <glyph glyph-name="ghainmedialarabic" unicode="&#x63a;" horiz-adv-x="630" arabic-form="medial" 
d="M203 477h2q203 -2 294 -223q-15 -43 -68 -121h172l31 -133h-206q-53 0 -119 27q-54 -27 -107 -27h-206l-30 133h170q-91 78 -123 122q-13 220 190 222zM232 356q-12 0 -27 -4.5t-32.5 -24.5t-20.5 -52q41 -56 123 -106q60 51 75 106q-25 45 -60.5 63t-57.5 18zM85 692
h136l27 -116h-136z" />
    <glyph glyph-name="fehfinalarabic" unicode="&#x641;" horiz-adv-x="988" arabic-form="final" 
d="M234 133h260q-61 65 -76 129q-20 85 25 150.5t140 65.5t170.5 -65.5t95.5 -150.5q6 -50 1.5 -72t-19.5 -57h130l31 -133h-198q-55 0 -106 22q-32 -22 -91 -22h-327q-89 0 -168.5 61.5t-101.5 140.5q-27 92 13 170l116 -86q-20 -39 0 -84q12 -28 42 -48.5t63 -20.5z
M553 262q8 -31 34 -56.5t48 -35.5l22 -10q3 1 7.5 4t15.5 12.5t19 20.5t13 28.5t1 36.5q-8 33 -34.5 60t-65.5 27q-38 0 -53 -27t-7 -60zM463 692h137l27 -116h-137z" />
    <glyph glyph-name="fehinitialarabic" unicode="&#x641;" horiz-adv-x="450" arabic-form="initial" 
d="M258 242l-1 1q-32 -53 -111 -53q-57 0 -111.5 37.5t-66.5 99.5q-22 111 74 144q59 21 226 20h68l66 -290q5 -23 7.5 -43.5t-1 -51t-16.5 -52.5t-44.5 -38t-79.5 -16h-268l-30 133h256q27 0 38.5 15.5t4.5 44.5zM219 415q-15 -1 -33.5 0t-37 -3.5t-33 -11t-21.5 -21
t-2 -35.5q7 -28 30 -46t51 -18q26 0 40 12.5t15.5 36t-1 41.5t-8.5 45zM45 695h137l27 -116h-137z" />
    <glyph glyph-name="fehmedialarabic" unicode="&#x641;" horiz-adv-x="587" arabic-form="medial" 
d="M182 478q95 0 170.5 -65.5t95.5 -150.5q6 -50 1.5 -72t-19.5 -57h130l31 -133h-198q-55 0 -106 22q-32 -22 -91 -22h-200l-30 133h127q-61 65 -76 129q-19 86 25.5 151t139.5 65zM152 262q8 -31 34 -56.5t48 -35.5l22 -10q3 1 7.5 4t15.5 12.5t19 20.5t13 28.5t1 36.5
q-8 33 -34.5 60t-65.5 27q-38 0 -53 -27t-7 -60zM62 692h137l27 -116h-137z" />
    <glyph glyph-name="qaffinalarabic" unicode="&#x642;" horiz-adv-x="814" arabic-form="final" 
d="M818 0h-160q-22 -81 -89.5 -126.5t-163.5 -45.5q-133 0 -249.5 97.5t-149.5 239.5q-19 90 -13 153h139q-16 -61 5 -153q19 -80 91 -141t146 -61q65 0 108 37q-91 -5 -162.5 57.5t-92.5 144.5q-10 38 -6 75.5t24.5 74.5t63.5 59.5t112.5 32t171.5 -9.5q67 -289 69 -301
h125zM449 133h80l-49 213q-69 10 -104.5 -27t-22.5 -99q7 -32 31.5 -59t64.5 -28zM192 648h136l27 -116h-136zM390 648h136l27 -116h-136z" />
    <glyph glyph-name="qafinitialarabic" unicode="&#x642;" horiz-adv-x="450" arabic-form="initial" 
d="M258 242l-1 1q-32 -53 -111 -53q-57 0 -111.5 37.5t-66.5 99.5q-22 111 74 144q59 21 226 20h68l66 -290q5 -23 7.5 -43.5t-1 -51t-16.5 -52.5t-44.5 -38t-79.5 -16h-268l-30 133h256q27 0 38.5 15.5t4.5 44.5zM219 415q-15 -1 -33.5 0t-37 -3.5t-33 -11t-21.5 -21
t-2 -35.5q7 -28 30 -46t51 -18q26 0 40 12.5t15.5 36t-1 41.5t-8.5 45zM152 695h136l27 -116h-136zM-45 695h135l27 -116h-135z" />
    <glyph glyph-name="qafmedialarabic" unicode="&#x642;" horiz-adv-x="587" arabic-form="medial" 
d="M161 692h136l26 -115h-136zM-36 692h135l26 -115h-135zM182 478q95 0 170.5 -65.5t95.5 -150.5q6 -50 1.5 -72t-19.5 -57h130l31 -133h-198q-55 0 -106 22q-32 -22 -91 -22h-200l-30 133h127q-61 65 -76 129q-19 86 25.5 151t139.5 65zM152 262q8 -31 34 -56.5t48 -35.5
l22 -10q3 1 7.5 4t15.5 12.5t19 20.5t13 28.5t1 36.5q-8 33 -34.5 60t-65.5 27q-38 0 -53 -27t-7 -60z" />
    <glyph glyph-name="kaffinalarabic" unicode="&#x643;" horiz-adv-x="1015" arabic-form="final" 
d="M676 0h-406q-89 0 -168.5 61.5t-101.5 140.5q-27 92 13 170l116 -86q-20 -39 0 -84q12 -28 42 -48.5t63 -20.5h400q57 0 43 60l-105 455h136l96 -418q11 -45 42.5 -71t76.5 -26h66l31 -133h-58q-90 0 -157 65q-31 -65 -129 -65zM224 337h197q24 0 46 11.5t28 36.5l-60 45
q-3 -17 -28 -17h-65l-7 33q-11 40 16 40q26 0 34 -27h73q-32 101 -124 101q-50 0 -67 -32.5t-5 -81.5l7 -33h-40z" />
    <glyph glyph-name="kafinitialarabic" unicode="&#x643;" horiz-adv-x="801" arabic-form="initial" 
d="M459 457q106 0 186.5 -66.5t102.5 -163.5q22 -96 -30 -161.5t-153 -65.5h-565l-30 133h564q39 0 61.5 27.5t13.5 66.5q-9 41 -42 69t-77 28h-466q-34 148 33.5 236t196.5 88h159l30 -129h-149q-104 0 -128 -62h293z" />
    <glyph glyph-name="kafmedialarabic" unicode="&#x643;" horiz-adv-x="940" arabic-form="medial" 
d="M455 457q106 0 186.5 -66.5t102.5 -163.5q11 -47 1 -94h169l31 -133h-949l-30 133h567q37 2 59 29t13 65q-9 41 -42 69t-77 28h-467q-34 148 33.5 236t196.5 88h160l30 -129h-150q-102 0 -128 -62h294z" />
    <glyph glyph-name="lamfinalarabic" unicode="&#x644;" horiz-adv-x="852" arabic-form="final" 
d="M521 168l-111 480h134l96 -418q11 -45 42.5 -71t76.5 -26h67l31 -133h-59q-74 0 -133 45q-10 -101 -80.5 -159t-179.5 -58q-133 0 -249.5 97.5t-149.5 239.5q-19 90 -13 153h139q-16 -61 5 -153q19 -80 91 -141t146 -61q80 0 123.5 57.5t23.5 147.5z" />
    <glyph glyph-name="laminitialarabic" unicode="&#x644;" horiz-adv-x="311" arabic-form="initial" 
d="M130 0h-130l-30 133h117q27 0 39 15.5t5 44.5l-105 455h135l103 -447q5 -23 7.5 -43.5t-1 -51t-16.5 -52.5t-44.5 -38t-79.5 -16z" />
    <glyph glyph-name="lammedialarabic" unicode="&#x644;" horiz-adv-x="468" arabic-form="medial" 
d="M133 0h-137l-30 133h98q79 0 61 80l-100 435h135l96 -418q11 -45 42.5 -71t76.5 -26h67l31 -133h-59q-92 0 -160 70q-11 -32 -43 -51t-78 -19z" />
    <glyph glyph-name="meemfinalarabic" unicode="&#x645;" horiz-adv-x="987" arabic-form="final" 
d="M303 343q14 60 60.5 98t123.5 38q110 0 190 -72t102 -166q25 -108 93 -108h88l31 -133h-81q-87 0 -157 65q-52 -76 -153 -76q-94 0 -169.5 60.5t-109.5 144.5q-19 -10 -47 -10h-79q-27 0 -39 -16t-5 -44l68 -296h-135l-67 289q-5 22 -7.5 43t1.5 51.5t17 52t45 37.5
t79 16h108q32 0 43 26zM573 104q98 0 67 137q-31 129 -128 129q-98 0 -67 -129q31 -137 128 -137z" />
    <glyph glyph-name="meeminitialarabic" unicode="&#x645;" horiz-adv-x="640" arabic-form="initial" 
d="M119 0h-119l-30 133h112q56 0 42 62l-10 46q-12 43 -5 85.5t26 76.5t60 55t97 21q109 0 189.5 -72t102.5 -166q14 -60 1 -116.5t-60 -96t-120 -39.5q-92 0 -180 64q-11 -21 -38 -37t-68 -16zM445 241q-31 129 -128 129q-49 0 -63.5 -37.5t-1.5 -91.5q13 -59 45 -98
t81 -39q98 0 67 137z" />
    <glyph glyph-name="meemmedialarabic" unicode="&#x645;" horiz-adv-x="731" arabic-form="medial" 
d="M555 201q26 -68 81 -68h69l31 -133h-62q-64 0 -132 45q-45 -99 -165 -99q-109 0 -199 85q-38 -31 -101 -31h-81l-30 133h72q19 0 35 14t10 46q-23 97 24.5 170t156.5 73q108 0 188 -71t103 -164zM350 61q98 0 67 137q-31 129 -128 129q-52 0 -67 -35.5t-1 -93.5
q31 -137 129 -137z" />
    <glyph glyph-name="noonfinalarabic" unicode="&#x646;" horiz-adv-x="852" arabic-form="final" 
d="M521 168l-64 277h134l49 -215q11 -45 42.5 -71t76.5 -26h67l31 -133h-59q-74 0 -133 45q-10 -101 -80.5 -159t-179.5 -58q-133 0 -249.5 97.5t-149.5 239.5q-19 90 -13 153h139q-16 -61 5 -153q19 -80 91 -141t146 -61q80 0 123.5 57.5t23.5 147.5zM224 367h137l27 -116
h-137z" />
    <glyph glyph-name="nooninitialarabic" unicode="&#x646;" horiz-adv-x="311" arabic-form="initial" 
d="M130 0h-130l-30 133h117q27 0 39 15.5t5 44.5l-58 252h135l56 -244q5 -23 7.5 -43.5t-1 -51t-16.5 -52.5t-44.5 -38t-79.5 -16zM-2 648h135l27 -116h-136z" />
    <glyph glyph-name="noonmedialarabic" unicode="&#x646;" horiz-adv-x="468" arabic-form="medial" 
d="M133 0h-137l-30 133h98q79 0 61 80l-46 201h135l42 -184q11 -45 42.5 -71t76.5 -26h67l31 -133h-59q-92 0 -160 70q-11 -32 -43 -51t-78 -19zM23 648h136l27 -116h-136z" />
    <glyph glyph-name="hehfinalarabic" unicode="&#x647;" horiz-adv-x="604" arabic-form="final" 
d="M608 0h-97q-122 0 -185 98q-39 -59 -119 -54q-71 4 -133.5 57t-78.5 120q-28 112 36.5 163t198.5 52l-8 34l127 33l72 -310q14 -60 71 -60h85zM276 234l-27 119q-61 0 -100.5 -29t-27.5 -93q7 -32 32.5 -61.5t63.5 -30.5q35 -1 52.5 24t6.5 71z" />
    <glyph glyph-name="hehinitialarabic" unicode="&#x647;" horiz-adv-x="817" arabic-form="initial" 
d="M231 283q-47 -6 -68.5 -53.5t-16.5 -96.5h120zM229 400q14 48 69.5 86t137.5 38q67 0 130 -21.5t112 -68t63 -109.5l76 -325h-817l-30 133h63q-18 100 34 180t162 87zM373 387q91 -24 144 -94.5t74 -159.5h61l-45 194q-8 33 -47.5 62t-95.5 29q-18 0 -33 -2.5t-25 -7
t-16 -8t-12 -8.5zM360 276l33 -143h68q-29 122 -101 143z" />
    <glyph glyph-name="hehmedialarabic" unicode="&#x647;" horiz-adv-x="665" arabic-form="medial" 
d="M284 7q3 -7 10 -18.5t21.5 -28.5t37.5 -29t49 -12q17 0 28 18.5t7 33.5q-7 32 -67 36h-86zM679 0h-143q26 -25 33 -54q13 -56 -30 -92t-119 -36q-96 0 -161.5 54t-97.5 128h-175l-30 133h174l-52 226q-17 72 19.5 118t110.5 46h-2q74 0 133.5 -47.5t75.5 -116.5l31 -134
q16 -69 -2 -92h204zM262 123h15q21 0 36.5 23t9.5 48l-37 159q-3 14 -17 25.5t-32 11.5q-16 0 -23.5 -11.5t-4.5 -25.5z" />
    <glyph glyph-name="wawfinalarabic" unicode="&#x648;" horiz-adv-x="720" arabic-form="final" 
d="M302 -160l-62 119q50 -14 90 -14q95 0 107 55h-75q-100 0 -183.5 66t-105.5 162q-22 95 28.5 156t157.5 61h217l72 -312h146l31 -133h-149q5 -48 -11.5 -83.5t-48 -54t-67 -26.5t-74.5 -7q-35 1 -73 11zM412 133l-45 192h-85q-42 0 -60.5 -30t-9.5 -67q9 -39 40.5 -67
t74.5 -28h85z" />
    <glyph glyph-name="alefmaksurafinalarabic" unicode="&#x649;" horiz-adv-x="1149" arabic-form="final" 
d="M800 328h-224q-28 0 -29 -20q-2 -25 41 -47q10 -5 41 -21t41.5 -21.5t36 -20.5t36 -24t28.5 -25t27 -30t18 -33.5t14 -40.5q23 -101 -36.5 -159.5t-149.5 -58.5h-296q-61 0 -115 19t-92.5 51t-67 73.5t-41.5 86.5t-11.5 91t18.5 85l120 -72q-11 -18 -12.5 -44t8.5 -53
t29 -50t52 -38t75 -15h294q45 0 71.5 20.5t15.5 63.5q-3 10 -7.5 19t-14.5 18.5t-17.5 16t-25.5 17.5t-29 17.5t-38 21.5t-42 24q-37 21 -62.5 55.5t-31.5 70t3 67.5t42.5 52.5t85.5 20.5h353l58 -252q14 -60 71 -60h86l31 -133h-97q-48 0 -87 16t-62.5 38t-41 52.5
t-25 51.5t-12.5 43z" />
    <glyph glyph-name="yehfinalarabic" unicode="&#x64a;" horiz-adv-x="1149" arabic-form="final" 
d="M800 328h-224q-28 0 -29 -20q-2 -25 41 -47q10 -5 41 -21t41.5 -21.5t36 -20.5t36 -24t28.5 -25t27 -30t18 -33.5t14 -40.5q23 -101 -36.5 -159.5t-149.5 -58.5h-296q-61 0 -115 19t-92.5 51t-67 73.5t-41.5 86.5t-11.5 91t18.5 85l120 -72q-11 -18 -12.5 -44t8.5 -53
t29 -50t52 -38t75 -15h294q45 0 71.5 20.5t15.5 63.5q-3 10 -7.5 19t-14.5 18.5t-17.5 16t-25.5 17.5t-29 17.5t-38 21.5t-42 24q-37 21 -62.5 55.5t-31.5 70t3 67.5t42.5 52.5t85.5 20.5h353l58 -252q14 -60 71 -60h86l31 -133h-97q-48 0 -87 16t-62.5 38t-41 52.5
t-25 51.5t-12.5 43zM562 -344h137l-27 115h-137zM364 -344h137l-27 115h-137z" />
    <glyph glyph-name="yehinitialarabic" unicode="&#x64a;" horiz-adv-x="311" arabic-form="initial" 
d="M130 0h-130l-30 133h117q27 0 39 15.5t5 44.5l-58 252h135l56 -244q5 -23 7.5 -43.5t-1 -51t-16.5 -52.5t-44.5 -38t-79.5 -16zM188 -57h136l26 -115h-136zM-9 -57h135l26 -115h-136z" />
    <glyph glyph-name="yehmedialarabic" unicode="&#x64a;" horiz-adv-x="468" arabic-form="medial" 
d="M133 0h-137l-30 133h98q79 0 61 80l-46 201h135l42 -184q11 -45 42.5 -71t76.5 -26h67l31 -133h-59q-92 0 -160 70q-11 -32 -43 -51t-78 -19zM214 -172h136l-26 115h-136zM16 -172h136l-26 115h-135z" />
    <glyph glyph-name="lamalefmaddaaboveisolatedarabi" unicode="&#xfef5;" horiz-adv-x="510" arabic-form="isolated" 
d="M173 133l-237 498h137l237 -498q32 8 21 54l-105 458h135l102 -444q5 -23 7.5 -43.5t-1 -51t-16.5 -52.5t-44.5 -38t-79.5 -16h-246l22 133h68zM-71 692h-38q-7 32 3.5 56.5t33.5 25.5q10 1 24 -5t33.5 -17t28.5 -15q28 -9 33 -1.5t1 22.5h38q6 -33 -4.5 -57.5
t-32.5 -25.5q-10 0 -24.5 6t-33.5 16.5t-30 14.5q-26 9 -31.5 1.5t-0.5 -21.5z" />
    <glyph glyph-name="lamalefmaddaabovefinalarabic" unicode="&#xfef6;" horiz-adv-x="668" arabic-form="final" 
d="M173 133l-237 498h137l237 -498q32 8 21 54l-105 458h135l97 -420q11 -42 42 -67t75 -25h67l31 -133h-59q-89 0 -156 65q-31 -65 -129 -65h-246l22 133h68zM-71 692h-38q-7 32 3.5 56.5t33.5 25.5q10 1 24 -5t33.5 -17t28.5 -15q28 -9 33 -1.5t1 22.5h38
q6 -33 -4.5 -57.5t-32.5 -25.5q-10 0 -24.5 6t-33.5 16.5t-30 14.5q-26 9 -31.5 1.5t-0.5 -21.5z" />
    <glyph glyph-name="lamalefhamzaaboveisolatedarabi" unicode="&#xfef7;" horiz-adv-x="510" arabic-form="isolated" 
d="M173 133l-237 498h137l237 -498q32 8 21 54l-105 458h135l102 -444q5 -23 7.5 -43.5t-1 -51t-16.5 -52.5t-44.5 -38t-79.5 -16h-246l22 133h68zM-85 685h131q16 0 31 8t18 24l-40 30q0 -6 -4.5 -9t-8.5 -3h-4h-43l-5 23q-7 27 10 27t21 -18h50q-20 67 -81 67
q-34 0 -45.5 -22t-3.5 -54l5 -23h-27z" />
    <glyph glyph-name="lamalefhamzaabovefinalarabicX" unicode="&#xfef8;" horiz-adv-x="668" arabic-form="final" 
d="M173 133l-237 498h137l237 -498q32 8 21 54l-105 458h135l97 -420q11 -42 42 -67t75 -25h67l31 -133h-59q-89 0 -156 65q-31 -65 -129 -65h-246l22 133h68zM-85 685h131q16 0 31 8t18 24l-40 30q0 -6 -4.5 -9t-8.5 -3h-4h-43l-5 23q-7 27 10 27t21 -18h50q-20 67 -81 67
q-34 0 -45.5 -22t-3.5 -54l5 -23h-27z" />
    <glyph glyph-name="lamalefhamzabelowisolatedarabi" unicode="&#xfef9;" horiz-adv-x="510" arabic-form="isolated" 
d="M173 133l-237 498h137l237 -498q32 8 21 54l-105 458h135l102 -444q5 -23 7.5 -43.5t-1 -51t-16.5 -52.5t-44.5 -38t-79.5 -16h-246l22 133h68zM151 -196h132q41 0 49 31l-40 30q-2 -11 -19 -11h-44l-5 22q-5 27 12 27t22 -18h50q-21 67 -83 67q-33 0 -44.5 -21.5
t-4.5 -54.5l5 -22h-27z" />
    <glyph glyph-name="lamalefhamzabelowfinalarabicX" unicode="&#xfefa;" horiz-adv-x="668" arabic-form="final" 
d="M173 133l-237 498h137l237 -498q32 8 21 54l-105 458h135l97 -420q11 -42 42 -67t75 -25h67l31 -133h-59q-89 0 -156 65q-31 -65 -129 -65h-246l22 133h68zM151 -196h132q41 0 49 31l-40 30q-2 -11 -19 -11h-44l-5 22q-5 27 12 27t22 -18h50q-21 67 -83 67
q-33 0 -44.5 -21.5t-4.5 -54.5l5 -22h-27z" />
    <glyph glyph-name="lamalefisolatedarabic" unicode="&#xfefb;" horiz-adv-x="510" arabic-form="isolated" 
d="M173 133l-237 498h137l237 -498q32 8 21 54l-105 458h135l102 -444q5 -23 7.5 -43.5t-1 -51t-16.5 -52.5t-44.5 -38t-79.5 -16h-246l22 133h68z" />
    <glyph glyph-name="lamaleffinalarabic" unicode="&#xfefc;" horiz-adv-x="668" arabic-form="final" 
d="M173 133l-237 498h137l237 -498q32 8 21 54l-105 458h135l97 -420q11 -42 42 -67t75 -25h67l31 -133h-59q-89 0 -156 65q-31 -65 -129 -65h-246l22 133h68z" />
    <glyph glyph-name=".notdef" horiz-adv-x="500" 
d="M63 0h375v750h-375v-750zM125 63v625h250v-625h-250z" />
    <glyph glyph-name=".null" 
 />
    <glyph glyph-name="nonmarkingreturn" horiz-adv-x="333" 
 />
    <glyph glyph-name="space" unicode=" " horiz-adv-x="272" 
 />
    <glyph glyph-name="exclam" unicode="!" horiz-adv-x="329" 
d="M85 649l97 -472h-92l-124 472h119zM235 0h-114l-28 119h114z" />
    <glyph glyph-name="quotedbl" unicode="&#x22;" horiz-adv-x="378" 
d="M-105 648h125l54 -234h-125zM57 648h126l54 -234h-126z" />
    <glyph glyph-name="dollar" unicode="$" horiz-adv-x="499" 
d="M218 241l35 -151q26 3 40 20.5t6 52.5t-27.5 51.5t-53.5 26.5zM121 661l9 -40q89 -8 150.5 -51.5t79.5 -127.5h-130q-22 85 -79 89l38 -166q47 -10 80.5 -21.5t70 -32t60 -52.5t33.5 -76q19 -81 -31 -133t-128 -50l9 -40h-50l-9 40q-96 -2 -161.5 49t-84.5 144h129
q6 -40 33 -71t63 -32l-38 162q-47 12 -71 19.5t-57 23t-50.5 33t-34.5 46.5t-26 68q-16 72 32.5 123.5t121.5 55.5l-9 40h50zM136 379l-35 152q-26 0 -36 -24.5t-2 -57.5q7 -30 25 -45t48 -25z" />
    <glyph glyph-name="quotesingle" unicode="'" horiz-adv-x="213" 
d="M-105 648h125l54 -234h-125z" />
    <glyph glyph-name="parenleft" unicode="(" horiz-adv-x="215" 
d="M-26 648h91q-20 -207 22 -384q31 -135 146 -350h-91q-134 220 -164 358q-15 65 -18.5 133t0.5 117.5t14 125.5z" />
    <glyph glyph-name="parenright" unicode=")" horiz-adv-x="389" 
d="M254 -86h-91q20 204 -21 384q-27 116 -146 350h89q134 -217 167 -358q15 -65 18 -132.5t-1 -118.5t-15 -125z" />
    <glyph glyph-name="at" unicode="*" horiz-adv-x="499" 
d="M149 213l-131 -18l-20 95l139 -20l-109 107l73 46l78 -124l24 127l96 -50l-64 -106l133 17l20 -95l-137 20l109 -110l-73 -46l-82 127l-22 -128l-92 49z" />
    <glyph glyph-name="plus" unicode="+" horiz-adv-x="524" 
d="M107 434h108l38 -163h163l25 -108h-163l38 -163h-108l-38 163h-163l-24 108h162z" />
    <glyph glyph-name="hyphen" unicode="-" horiz-adv-x="299" 
d="M217 187h-221l-23 100h221z" />
    <glyph glyph-name="period" unicode="." horiz-adv-x="226" 
d="M181 0h-114l-28 119h114z" />
    <glyph glyph-name="slash" unicode="/" horiz-adv-x="398" 
d="M211 648l-49 -734h-105l50 734h104z" />
    <glyph glyph-name="zero" unicode="0" horiz-adv-x="257" 
d="M114 327l-123 -65l36 -162l124 67z" />
    <glyph glyph-name="one" unicode="1" horiz-adv-x="248" 
d="M28 631l116 -503l-105 -128l-145 631h134z" />
    <glyph glyph-name="two" unicode="2" horiz-adv-x="525" 
d="M183 0l-106 453q-8 34 8 55t50 21q37 0 63 -24.5t35 -60.5h138q-19 91 -91 139t-165 48q-89 0 -140 -46t-31 -133l104 -452h135z" />
    <glyph glyph-name="three" unicode="3" horiz-adv-x="693" 
d="M284 631l37 -177q12 -10 50 -10q15 0 26 12.5t5 38.5l-31 136h132l32 -139q20 -86 -23 -127.5t-106 -39.5q-57 0 -108 24q-26 -35 -81.5 -39t-96.5 15l76 -325h-135l-145 631h134l29 -125q7 -32 25.5 -50t42.5 -18q22 0 33.5 11t5.5 33l-34 149h132z" />
    <glyph glyph-name="four" unicode="4" horiz-adv-x="537" 
d="M423 48l-78 115q-34 -30 -110 -30q-28 0 -62 18t-46 49q-16 41 11.5 63t90.5 22h53l-27 116h-54q-90 0 -105 61q-5 21 8.5 37t37.5 18q40 2 90 -23l25 108q-79 29 -154 29q-79 0 -121 -43t-22 -130q15 -66 75 -106q-28 -21 -40.5 -63t-0.5 -90q20 -93 97.5 -146
t174.5 -53t157 48z" />
    <glyph glyph-name="five" unicode="5" horiz-adv-x="605" 
d="M245 161q-41 3 -77 33t-49 86q-10 52 13.5 91.5t53.5 47.5q33 -8 74.5 -47.5t55.5 -91.5q13 -56 -9 -86.5t-62 -32.5zM275 32q11 0 24 2t36 7.5t41.5 17t39 30t29.5 46t13 66.5t-10 90q-25 96 -121.5 172.5t-168.5 76.5t-133.5 -76.5t-42.5 -172.5q15 -68 48 -119
t67.5 -76.5t74.5 -41t63 -19t40 -3.5z" />
    <glyph glyph-name="six" unicode="6" horiz-adv-x="528" 
d="M97 516h-134l-89 115h190q88 0 157 -47.5t89 -135.5l104 -448h-135l-105 454q-7 27 -26.5 44.5t-50.5 17.5z" />
    <glyph glyph-name="seven" unicode="7" horiz-adv-x="552" 
d="M-122 631h143l190 -360q4 73 11 209t8 151h145l-40 -631h-118z" />
    <glyph glyph-name="eight" unicode="8" horiz-adv-x="606" 
d="M40 0h145q21 340 23 361l186 -361h144l-331 631h-119z" />
    <glyph glyph-name="nine" unicode="9" horiz-adv-x="546" 
d="M244 274l64 -274h135l-146 631h-134q-133 0 -198 -51t-38 -164q17 -67 79 -120t134 -57q65 -2 104 35zM181 548l29 -124q8 -43 -9 -66.5t-51 -22.5q-39 0 -64 29.5t-33 62.5q-12 63 27.5 92t100.5 29z" />
    <glyph glyph-name="colon" unicode=":" horiz-adv-x="249" 
d="M182 0h-114l-28 119h114zM118 277h-114l-27 119h113z" />
    <glyph glyph-name="less" unicode="&#x3c;" horiz-adv-x="413" 
d="M422 -41l-288 233l180 234h-139l-179 -234l287 -233h139z" />
    <glyph glyph-name="equal" unicode="=" horiz-adv-x="524" 
d="M-40 370h433l25 -108h-433zM9 154h434l25 -107h-434z" />
    <glyph glyph-name="greater" unicode="&#x3e;" horiz-adv-x="587" 
d="M153 -41l180 233l-288 234h139l288 -234l-180 -233h-139z" />
    <glyph glyph-name="bracketleft" unicode="[" horiz-adv-x="232" 
d="M-109 648h191l19 -81h-84l132 -572h84l18 -81h-192z" />
    <glyph glyph-name="backslash" unicode="\" horiz-adv-x="249" 
d="M-176 648h101l351 -648h-100z" />
    <glyph glyph-name="bracketright" unicode="]" horiz-adv-x="406" 
d="M355 -86h-192l-18 81h84l-132 572h-84l-18 81h191z" />
    <glyph glyph-name="underscore" unicode="_" horiz-adv-x="448" 
d="M462 -61l11 -50h-448l-11 50h448z" />
    <glyph glyph-name="braceleft" unicode="{" horiz-adv-x="327" 
d="M364 -163l-6 27l-32 5q-67 9 -85 86l-45 196q-15 62 -65 76l-37 8l35 10q43 12 28 73l-46 198q-18 78 46 86l29 6l-6 26h-108q-46 0 -66.5 -34t-5.5 -98l40 -178q12 -53 -29 -63l-29 -8l8 -34l33 -8q44 -10 58 -65l41 -177q15 -65 55 -99q15 -15 62 -24t77 -9h48z" />
    <glyph glyph-name="bar" unicode="|" horiz-adv-x="178" 
d="M81 -162h93l-179 780h-93z" />
    <glyph glyph-name="braceright" unicode="}" horiz-adv-x="501" 
d="M181 -163l-6 27l30 5q63 9 45 86l-45 196q-15 62 29 76l33 8l-39 10q-47 12 -62 73l-46 198q-18 79 -84 86l-33 6l-5 26h107q47 0 83.5 -34.5t51.5 -97.5l41 -178q12 -52 57 -63l34 -8l8 -34l-30 -8q-42 -10 -28 -65l41 -177q15 -63 -9 -99q-9 -15 -52 -24t-73 -9h-48z
" />
    <glyph glyph-name="nbspace" unicode="&#xa0;" horiz-adv-x="623" 
 />
    <glyph glyph-name="guillemotleft" unicode="&#xab;" horiz-adv-x="476" 
d="M84 68l-139 173l59 173h118l-52 -173l132 -173h-118zM302 68l-140 173l60 173h118l-52 -173l132 -173h-118z" />
    <glyph glyph-name="guillemotright" unicode="&#xbb;" horiz-adv-x="650" 
d="M166 414l140 -173l-60 -173h-118l52 173l-132 173h118zM384 414l140 -173l-60 -173h-118l52 173l-132 173h118z" />
    <glyph glyph-name="multiply" unicode="&#xd7;" horiz-adv-x="524" 
d="M-35 349l57 76l174 -141l108 141l94 -76l-109 -141l174 -141l-58 -76l-174 141l-108 -141l-94 76l108 141z" />
    <glyph glyph-name="divide" unicode="&#xf7;" horiz-adv-x="524" 
d="M418 262l25 -108h-434l-24 108h433zM210 -9l-25 108h108l25 -108h-108zM134 318l-25 107h108l25 -107h-108z" />
    <glyph glyph-name="commaarabic" unicode="&#x60c;" horiz-adv-x="289" 
d="M193 220l-15 -220h-133l56 220h92z" />
    <glyph glyph-name="semicolonarabic" unicode="&#x61b;" horiz-adv-x="249" 
d="M124 497l-16 -220h-132l55 220h93zM22 119h114l28 -119h-114z" />
    <glyph glyph-name="questionarabic" unicode="&#x61f;" horiz-adv-x="428" 
d="M188 145h100l-21 92q-4 25 -18.5 44.5t-47 44.5t-34.5 27q-86 82 -95 120q-22 97 85 97q52 0 124 -21l-22 93q-67 18 -155 18q-82 0 -138 -41t-38 -119q8 -32 23 -59.5t42 -53.5t46 -41t56 -42q36 -26 50 -40t24 -37zM217 0h114l-28 119h-114z" />
    <glyph glyph-name="tatweelarabic" unicode="&#x640;" horiz-adv-x="173" 
d="M178 0l-31 133h-181l30 -133h182z" />
    <glyph glyph-name="maddaabove" unicode="&#x653;" 
d="M-15 700h-38q-7 32 3.5 56.5t33.5 25.5q9 1 23.5 -5t34 -17t29.5 -15q27 -9 32 -1t1 22h38q7 -33 -4 -57.5t-33 -25.5q-10 0 -24.5 6t-34.5 16.5t-30 14.5q-25 9 -30.5 1.5t-0.5 -21.5z" />
    <glyph glyph-name="hamzaabove" unicode="&#x654;" 
d="M-49 704h131q42 0 49 32l-40 30q0 -6 -4.5 -9t-8.5 -3h-5h-44l-5 23q-5 27 12 27t21 -18h50q-22 67 -82 67q-33 0 -44.5 -22t-4.5 -54l5 -23h-27z" />
    <glyph glyph-name="hamzabelow" unicode="&#x655;" 
d="M151 -196h132q41 0 49 31l-40 30q-2 -11 -19 -11h-44l-5 22q-5 27 12 27t22 -18h50q-21 67 -83 67q-33 0 -44.5 -21.5t-4.5 -54.5l5 -22h-27z" />
    <glyph glyph-name="zeroarabic" unicode="&#x660;" horiz-adv-x="257" 
d="M114 327l-123 -65l36 -162l124 67z" />
    <glyph glyph-name="onearabic" unicode="&#x661;" horiz-adv-x="248" 
d="M28 631l119 -515l-106 -128l-147 643h134z" />
    <glyph glyph-name="twoarabic" unicode="&#x662;" horiz-adv-x="525" 
d="M183 0l-106 453q-8 34 8 55t50 21q37 0 63 -24.5t35 -60.5h138q-19 91 -91 139t-165 48q-89 0 -140 -46t-31 -133l104 -452h135z" />
    <glyph glyph-name="threearabic" unicode="&#x663;" horiz-adv-x="693" 
d="M284 631l37 -177q12 -10 50 -10q15 0 26 12.5t5 38.5l-31 136h132l32 -139q20 -86 -23 -127.5t-106 -39.5q-57 0 -108 24q-26 -35 -81.5 -39t-96.5 15l76 -325h-135l-145 631h134l29 -125q7 -32 25.5 -50t42.5 -18q22 0 33.5 11t5.5 33l-34 149h132z" />
    <glyph glyph-name="fourarabic" unicode="&#x664;" horiz-adv-x="537" 
d="M423 48l-78 115q-34 -30 -110 -30q-28 0 -62 18t-46 49q-16 41 11.5 63t90.5 22h53l-27 116h-54q-90 0 -105 61q-5 21 8.5 37t37.5 18q40 2 90 -23l25 108q-79 29 -154 29q-79 0 -121 -43t-22 -130q15 -66 75 -106q-28 -21 -40.5 -63t-0.5 -90q20 -93 97.5 -146
t174.5 -53t157 48z" />
    <glyph glyph-name="fivearabic" unicode="&#x665;" horiz-adv-x="605" 
d="M245 161q-41 3 -77 33t-49 86q-10 52 13.5 91.5t53.5 47.5q33 -8 74.5 -47.5t55.5 -91.5q13 -56 -9 -86.5t-62 -32.5zM275 32q11 0 24 2t36 7.5t41.5 17t39 30t29.5 46t13 66.5t-10 90q-25 96 -121.5 172.5t-168.5 76.5t-133.5 -76.5t-42.5 -172.5q15 -68 48 -119
t67.5 -76.5t74.5 -41t63 -19t40 -3.5z" />
    <glyph glyph-name="sixarabic" unicode="&#x666;" horiz-adv-x="528" 
d="M97 516h-134l-89 115h190q88 0 157 -47.5t89 -135.5l104 -448h-135l-105 454q-7 27 -26.5 44.5t-50.5 17.5z" />
    <glyph glyph-name="sevenarabic" unicode="&#x667;" horiz-adv-x="552" 
d="M-122 631h143l190 -360q4 73 11 209t8 151h145l-40 -631h-118z" />
    <glyph glyph-name="eightarabic" unicode="&#x668;" horiz-adv-x="606" 
d="M40 0h145q21 340 23 361l186 -361h144l-331 631h-119z" />
    <glyph glyph-name="ninearabic" unicode="&#x669;" horiz-adv-x="546" 
d="M244 274l64 -274h135l-146 631h-134q-133 0 -198 -51t-38 -164q17 -67 79 -120t134 -57q65 -2 104 35zM181 548l29 -124q8 -43 -9 -66.5t-51 -22.5q-39 0 -64 29.5t-33 62.5q-12 63 27.5 92t100.5 29z" />
    <glyph glyph-name="percentarabic" unicode="&#x66a;" horiz-adv-x="516" 
d="M33 652l-123 -65l37 -162l123 67zM413 248l-124 -66l38 -161l123 66zM253 689l-48 -734h-105l49 734h104z" />
    <glyph glyph-name="decimalseparatorarabic" unicode="&#x66b;" horiz-adv-x="249" 
d="M48 -100l15 219h133l-55 -219h-93z" />
    <glyph glyph-name="thousandsseparatorarabic" unicode="&#x66c;" horiz-adv-x="249" 
d="M48 -100l15 219h133l-55 -219h-93z" />
    <glyph glyph-name="asteriskarabic" unicode="&#x66d;" horiz-adv-x="500" 
d="M390 245l-14 20l-133 -20l-71 143h-20l-6 -143l-143 21l-3 -21l137 -93l-20 -139l21 -13l92 94l135 -94l13 15l-83 138z" />
    <glyph glyph-name="superscriptalef" unicode="&#x670;" 
d="M-139 704h64l-49 214h-64z" />
    <glyph glyph-name="extendedarabicindicdigitzero" unicode="&#x6f0;" horiz-adv-x="257" 
d="M114 327l-123 -65l36 -162l124 67z" />
    <glyph glyph-name="extendedarabicindicdigitone" unicode="&#x6f1;" horiz-adv-x="248" 
d="M28 631l116 -503l-105 -128l-145 631h134z" />
    <glyph glyph-name="extendedarabicindicdigittwo" unicode="&#x6f2;" horiz-adv-x="525" 
d="M183 0l-106 453q-8 34 8 55t50 21q37 0 63 -24.5t35 -60.5h138q-19 91 -91 139t-165 48q-89 0 -140 -46t-31 -133l104 -452h135z" />
    <glyph glyph-name="extendedarabicindicdigitthree" unicode="&#x6f3;" horiz-adv-x="693" 
d="M284 631l37 -177q12 -10 50 -10q15 0 26 12.5t5 38.5l-31 136h132l32 -139q20 -86 -23 -127.5t-106 -39.5q-57 0 -108 24q-26 -35 -81.5 -39t-96.5 15l76 -325h-135l-145 631h134l29 -125q7 -32 25.5 -50t42.5 -18q22 0 33.5 11t5.5 33l-34 149h132z" />
    <glyph glyph-name="extendedarabicindicdigitfour" unicode="&#x6f4;" horiz-adv-x="537" 
d="M423 48l-78 115q-34 -30 -110 -30q-28 0 -62 18t-46 49q-16 41 11.5 63t90.5 22h53l-27 116h-54q-90 0 -105 61q-5 21 8.5 37t37.5 18q40 2 90 -23l25 108q-79 29 -154 29q-79 0 -121 -43t-22 -130q15 -66 75 -106q-28 -21 -40.5 -63t-0.5 -90q20 -93 97.5 -146
t174.5 -53t157 48z" />
    <glyph glyph-name="extendedarabicindicdigitfive" unicode="&#x6f5;" horiz-adv-x="605" 
d="M245 161q-41 3 -77 33t-49 86q-10 52 13.5 91.5t53.5 47.5q33 -8 74.5 -47.5t55.5 -91.5q13 -56 -9 -86.5t-62 -32.5zM275 32q11 0 24 2t36 7.5t41.5 17t39 30t29.5 46t13 66.5t-10 90q-25 96 -121.5 172.5t-168.5 76.5t-133.5 -76.5t-42.5 -172.5q15 -68 48 -119
t67.5 -76.5t74.5 -41t63 -19t40 -3.5z" />
    <glyph glyph-name="extendedarabicindicdigitsix" unicode="&#x6f6;" horiz-adv-x="528" 
d="M97 516h-134l-89 115h190q88 0 157 -47.5t89 -135.5l104 -448h-135l-105 454q-7 27 -26.5 44.5t-50.5 17.5z" />
    <glyph glyph-name="extendedarabicindicdigitseven" unicode="&#x6f7;" horiz-adv-x="552" 
d="M-122 631h143l190 -360q4 73 11 209t8 151h145l-40 -631h-118z" />
    <glyph glyph-name="extendedarabicindicdigiteight" unicode="&#x6f8;" horiz-adv-x="606" 
d="M40 0h145q21 340 23 361l186 -361h144l-331 631h-119z" />
    <glyph glyph-name="extendedarabicindicdigitnine" unicode="&#x6f9;" horiz-adv-x="546" 
d="M244 274l64 -274h135l-146 631h-134q-133 0 -198 -51t-38 -164q17 -67 79 -120t134 -57q65 -2 104 35zM181 548l29 -124q8 -43 -9 -66.5t-51 -22.5q-39 0 -64 29.5t-33 62.5q-12 63 27.5 92t100.5 29z" />
    <glyph glyph-name="zeronojoin" unicode="&#x200c;" horiz-adv-x="20" 
d="M20 0l-166 722h-20l166 -722h20z" />
    <glyph glyph-name="zerojoin" unicode="&#x200d;" horiz-adv-x="20" 
d="M-82 663l-58 48l37 47l-18 14l-36 -48l-58 48l-10 -14l58 -47l-37 -48l17 -13l29 37l158 -687h20l-158 687l45 -37z" />
    <glyph glyph-name="lefttoright" unicode="&#x200e;" horiz-adv-x="20" 
d="M-30 711l-74 61l-10 -14l44 -36h-96l166 -722h20l-162 702h78l-29 -38l17 -14z" />
    <glyph glyph-name="righttoleft" unicode="&#x200f;" horiz-adv-x="20" 
d="M20 0l-166 722h-96l28 36l-18 14l-46 -61l74 -61l11 14l-47 38h78l162 -702h20z" />
    <glyph glyph-name="hyphenminus" unicode="&#x2010;" horiz-adv-x="454" 
d="M-20 192h420l-9 39h-420z" />
    <glyph glyph-name="quotedblleft" unicode="&#x201c;" horiz-adv-x="415" 
d="M265 648l-15 -220h-133l56 220h92zM89 648l-16 -220h-131l55 220h92z" />
    <glyph glyph-name="quotedblright" unicode="&#x201d;" horiz-adv-x="590" 
d="M222 428l15 220h133l-56 -220h-92zM45 428l16 220h132l-55 -220h-93z" />
    <glyph glyph-name="delete" unicode="&#x2421;" horiz-adv-x="709" 
d="M660 57l-7 31h-127l-53 229h-36l60 -260h163zM465 57l-7 31h-159l-20 88h143l-7 31h-143l-19 79h153l-7 31h-189l60 -260h195zM209 189q-25 106 -108 124q-13 4 -47 4h-89l59 -260h95q22 0 40 5q74 19 50 127zM174 189q12 -56 -7 -83q-15 -18 -59 -18h-56l-46 198h55
q29 0 46 -5q50 -18 67 -92z" />
    <glyph glyph-name="ornateleftparenthesis" unicode="&#xfd3e;" horiz-adv-x="215" 
d="M-26 648h91q-20 -207 22 -384q31 -135 146 -350h-91q-134 220 -164 358q-15 65 -18.5 133t0.5 117.5t14 125.5z" />
    <glyph glyph-name="ornaterightparenthesis" unicode="&#xfd3f;" horiz-adv-x="389" 
d="M254 -86h-91q20 204 -21 384q-27 116 -146 350h89q134 -217 167 -358q15 -65 18 -132.5t-1 -118.5t-15 -125z" />
    <glyph glyph-name="zerowidthnobreakspace" unicode="&#xfeff;" 
 />
    <glyph glyph-name="CR" horiz-adv-x="333" 
 />
    <glyph glyph-name="_4" horiz-adv-x="280" 
 />
    <glyph glyph-name="_13" horiz-adv-x="273" 
 />
    <glyph glyph-name="kashidaautoarabic" horiz-adv-x="173" 
d="M178 0l-31 133h-181l30 -133h182z" />
    <glyph glyph-name="nonbreakingspace" horiz-adv-x="623" 
 />
    <glyph glyph-name="_246" 
 />
  </font>
</defs>
</svg>
